<svg xmlns="http://www.w3.org/2000/svg" viewBox="0 0 200 100">
  <defs/>
  <defs>
    <path id="a" d="M33.141 118.022h148.458v61.547H33.141z"/>
  </defs>
  <path fill="#16b7ca" d="M29.538 80.146c-9.185-.251-19.277-3.452-23.43-7.432-1.334-1.278-2.031-2.457-2.21-3.735-.277-1.982 1.524-3.818 5.212-5.311 3.354-1.358 8.519-2.388 12.418-2.477l1.323-.03-.42-.665c-3.527-5.583-6.291-11.456-8.166-17.346-2.016-6.331-3.109-12.803-3.392-20.087-.043-1.108-.04-1.33.017-1.264.038.044 1.026 3.077 1.995 6.124 2.856 8.988 4.22 12.649 6.135 16.467.814 1.624 1.363 2.58 2.216 3.86 3.119 4.677 6.741 7.162 11.248 7.717 2.695.331 5.197-.444 7.725-2.394.61-.47 2.269-2.1 2.846-2.797 3.487-4.21 6.645-10.53 9.84-19.695 1.094-3.137 2.11-6.387 3.46-11.075.061-.215.142-.232.11-.024-.013.084-.036.468-.051.854-.066 1.683-.278 4.812-.471 6.97-1.12 12.509-3.621 21.514-7.82 28.162-1.324 2.096-3.022 4.172-4.62 5.651a14.07 14.07 0 00-.575.547c-.007.016.573.054 1.287.085 7.39.323 13.547 1.91 17.595 4.534 1.931 1.251 3.502 2.845 4.149 4.208.297.627.407 1.09.409 1.723 0 .494-.015.608-.13.951-.476 1.407-1.983 2.48-4.076 2.904-2.055.415-6.913.545-10.567.283-7.782-.56-15.555-2.878-21.506-6.415-.83-.493-.953-.59-.687-.536 11.407 2.308 21.795 3.153 25.277 2.055.654-.206 1.104-.495 1.27-.815.203-.393-.017-.974-.584-1.543-1.908-1.917-7.554-3.477-17.57-4.855-1.31-.18-2.624-.292-5.286-.449-8.796-.517-15.628-.251-19.857.774-3.168.768-4.815 1.886-4.819 3.272-.005 2.516 2.987 4.953 8.232 6.704 7.022 2.344 17.562 3.372 25.482 2.483.366-.04.692-.065.725-.053.152.051-1.292.84-2.197 1.199-2.149.853-4.706 1.323-7.917 1.455-1.03.042-1.531.045-2.62.016zm3.883-42.102a11.677 11.677 0 01-1.776-.415 8.473 8.473 0 01-5.244-5.308c-.296-.888-.376-1.357-.405-2.372-.03-1.054.02-1.548.245-2.423 1.212-4.72 6.196-7.43 10.829-5.89a8.468 8.468 0 015.609 6.334c.918 4.559-1.996 8.975-6.565 9.947-.484.103-.705.122-1.547.134-.54.008-1.056.005-1.146-.007z"/>
  <g fill="#454348" stroke-width=".313" aria-label="Optimal" font-family="Salsa" font-size="33.338" font-weight="400" letter-spacing="0" style="line-height:1.25;-inkscape-font-specification:'Salsa, Normal';font-variant-ligatures:normal;font-variant-caps:normal;font-variant-numeric:normal;font-variant-east-asian:normal" word-spacing="0">
    <path d="M90.533 35.924q0-3.967-1.634-6.4-1.6-2.468-5.034-2.468-2.067 0-3.667 1.334-.9 1.4-1.434 3.767-.5 2.367-.5 4.5 0 3.934 1.6 6.301t5.068 2.367q1.9 0 3.234-1.533 2.367-2.767 2.367-7.868zm-6.735 12.535q-4.867 0-7.4-3.2-2.534-3.234-2.534-8.435 0-5.234 3.133-9.035 3.134-3.8 7.968-3.8 4.868 0 7.401 3.267 2.567 3.267 2.567 8.501T91.8 44.725q-3.134 3.734-8.002 3.734zM101.948 44.792q1.367.5 3.167.5 1.8 0 3.167-.7 1.634-2.8 1.634-6.701 0-3.934-1.367-3.934-1.7 0-3.834 3.434-2.1 3.434-2.767 7.401zm0-6.834q3.534-6.968 7.834-6.968 2.267 0 3.234 1.867 1 1.834 1 4.667 0 4.068-2.4 7.401-2.4 3.334-6.034 3.334-2.067 0-3.767-.667.066 4.568.566 8.368-1.067.4-2.2.4-1.134 0-1.867-.766-.733-.734-.733-2.267 0-1.534.4-5.234.4-3.701.4-5.801 0-6.935-.734-10.702 1.067-.4 2.234-.4 1.2 0 1.834.7.666.667.666 2.134 0 1.433-.433 3.934zM118.026 26.29q1.067-.534 2.167-.534 1.1 0 1.767.7.7.7.7 2.067 0 1.367-.167 3.1 2.5 0 4.768-.7.4.667.4 1.567 0 .867-.8 1.434-.767.533-1.567.533-.8 0-1.8-.2t-1.3-.233q-.034.3-.2 1.2l-.234 1.567q-.267 1.833-.267 3.934 0 4.567 2.967 4.567 1.1 0 2.534-.767.433.634.433 1.634 0 1-1.1 1.567-1.067.533-2.567.533-5.868 0-5.868-6.667 0-.967.267-3.501.3-2.534.3-4.1-1.6.1-2.567.566-.4-.6-.4-1.367 0-.8.567-1.3.567-.533 1.4-.533.834 0 1.1.033.034-.267.034-.7 0-2.5-.567-4.4zM130.012 31.49q1.067-.3 2.134-.3 1.1 0 1.867.667.766.667.766 1.733 0 1.034-.366 3.634-.334 2.567-.334 4 0 3.735.7 6.435-1.033.4-2.233.4-1.2 0-1.9-.533-.7-.567-.7-1.6 0-1.067.4-3.468.4-2.4.4-3.967 0-4.167-.734-7.001zm.433-7.534q1.167-.534 2.3-.534 1.134 0 1.668.6.566.567.566 1.7 0 1.134-.766 2-.734.868-1.934.868-2.467 0-2.467-2.567 0-1.134.633-2.067zM163.879 34.59l-.333 7.135q0 3.234.933 6.134-.933.4-2.134.4-2.833 0-2.833-3.167 0-1.433.366-4.8.367-3.401.367-4.268 0-1.667-1.367-1.667-1.5 0-3.6 3.067-2.067 3.067-2.067 4.801.166 2.634.933 5.234-1.267.4-2.133.4-2.834 0-2.834-3.167 0-1.334.367-4.467.366-3.134.366-3.934 0-1.667-1.5-1.667-1.033 0-2.367 1.533-1.334 1.534-2.267 3.4-.9 1.835-.967 2.935.167 2.867.667 5.167-1.067.4-2.234.4-1.133 0-1.867-.533-.7-.567-.7-1.534 0-1 .3-3.534.3-2.567.3-5.067 0-2.534-.766-5.801 1.066-.4 2.267-.4 1.2 0 1.933.7.767.7.767 1.867 0 .6-.233 2.934 1.233-2.2 3.133-3.8 1.9-1.634 3.801-1.634 3.367 0 3.367 3.6 0 .9-.1 2 1.234-2.333 3.167-4.1 1.967-1.767 3.9-1.767 3.368 0 3.368 3.6zM183.14 32.357q-.9 3.834-.9 7.701 0 3.834.867 7.601-1.2.4-2.467.4-1.266 0-1.767-.733-.5-.767-.5-2.167 0-1.434.434-3.9-2.367 5.067-4.568 6.4-1 .6-2.067.6-2.533 0-3.933-1.867-1.4-1.9-1.4-4.7 0-4.268 2.366-7.468 2.367-3.234 6.135-3.234 3.8 0 7.8 1.367zm-4.367 2q-1.767-.533-3-.533-2.5 0-3.734 1.1-1.133 2.8-1.133 5.7 0 1.534.466 3.101.5 1.567 1.5 1.567 1.167 0 3.001-3.434 1.834-3.434 2.9-7.5zM186.439 23.455q1.066-.4 2.2-.4 1.133 0 1.867.767.767.734.767 2.034 0 1.267-.367 5.134-.333 3.834-.333 6.034 0 5.434.766 10.635-1.066.4-2.267.4-2.567 0-2.567-2.5 0-1.2.367-4.7.367-3.535.367-5.668 0-7.101-.8-11.736z" style="-inkscape-font-specification:'Salsa, Normal';font-variant-ligatures:normal;font-variant-caps:normal;font-variant-numeric:normal;font-variant-east-asian:normal"/>
  </g>
  <g fill="#454348" stroke-width=".313" aria-label="Physical Therapy" font-family="Salsa" font-size="18.753" font-weight="400" letter-spacing="-1.25" style="line-height:1.25;-inkscape-font-specification:'Salsa, Normal';font-variant-ligatures:normal;font-variant-caps:normal;font-variant-numeric:normal;font-variant-east-asian:normal" word-spacing="0">
    <path d="M71.058 58.27q2.1-.713 4.35-.713 2.25 0 3.732.957 1.482.956 1.482 2.925 0 1.97-1.388 3.32-1.388 1.33-3.338 1.33-1.425 0-1.425-1.087 0-.337.13-.712.507.13.92.13 1.294 0 1.95-.712.675-.712.675-1.969 0-1.275-.712-1.894-.713-.619-1.988-.619-.657 0-1.594.225-.15 2.307-.15 4.089 0 4.988.394 7.22-.6.224-1.276.224-.675 0-1.181-.43-.488-.432-.488-1.145 0-.712.188-2.475.187-1.782.187-2.85 0-3.264-.468-5.814zM89.4 63.408l-.187 4.126q0 1.65.544 3.338-.582.225-1.182.225-1.631 0-1.631-1.725 0-1.276.225-3 .225-1.726.225-2.12 0-.975-.882-.975-.937 0-2.081 1.763-1.144 1.744-1.313 2.925.038.544.375 2.794-.581.225-1.275.225-1.444 0-1.444-1.406 0-.675.206-2.644.207-1.988.207-3.188 0-3.995-.45-6.601.6-.225 1.237-.225.638 0 1.05.431.432.413.432 1.144 0 .731-.207 3.02-.187 2.287-.187 3.562.656-1.387 1.913-2.531 1.275-1.163 2.531-1.163 1.894 0 1.894 2.025zM90.644 67.871l.188-2.7q0-1.819-.526-3.45.526-.226 1.294-.226 1.5 0 1.5 1.67 0 .75-.206 2.119-.206 1.368-.206 1.894 0 .506.019.75.019.225.094.543.112.638.73.638.639 0 1.351-.994.731-1.012 1.163-2.231.45-1.22.45-1.932-.094-1.481-.319-2.232.6-.225 1.219-.225.638 0 1.05.394.431.394.431 1.05 0 10.24-3.75 12.283-.844.45-1.913.45t-1.875-.562q-.788-.563-.788-1.575 0-.675.507-1.144.506-.45 1.2-.45.15 0 .375.037-.056.244-.056.432 0 1.65 1.143 1.65.694 0 1.257-.75.562-.75.9-1.838.656-2.213.656-4.013-.562 1.519-1.537 2.456-.957.92-2.082.92-2.269 0-2.269-2.964zM101.222 67.571q-.056.263-.056.432 0 .769.45 1.181.468.413 1.237.413.788 0 1.294-.282.525-.3.525-.881t-.562-.919q-.544-.356-1.332-.562-.769-.207-1.556-.45-.788-.263-1.35-.807-.544-.544-.544-1.369 0-1.294 1.369-2.175 1.369-.882 2.869-.882 1.65 0 2.513.676.506.393.506 1.05 0 .637-.506 1.05-.488.394-1.2.394-.15 0-.375-.038.056-.244.056-.431 0-.544-.413-.825-.412-.282-1.125-.282-.694 0-1.275.282-.225.3-.225.769 0 .468.544.768.544.282 1.312.507.788.206 1.576.487.787.263 1.331.844.544.563.544 1.425 0 1.407-1.407 2.345-1.387.918-2.869.918-1.481 0-2.456-.525-.957-.544-.957-1.631 0-.675.488-1.088.506-.431 1.219-.431.15 0 .375.037zM106.912 61.664q.6-.169 1.2-.169.619 0 1.05.376.431.375.431.975 0 .581-.206 2.044-.187 1.444-.187 2.25 0 2.1.393 3.62-.581.224-1.256.224t-1.069-.3q-.394-.318-.394-.9 0-.6.225-1.95t.225-2.232q0-2.344-.412-3.938zm.243-4.238q.657-.3 1.294-.3.638 0 .938.338.319.318.319.956 0 .638-.431 1.125-.413.488-1.088.488-1.388 0-1.388-1.444 0-.638.356-1.163zM114.116 71.21q-2.006 0-3.075-1.07-1.069-1.068-1.069-3.075 0-2.438 1.369-4.107 1.369-1.688 3.638-1.688 1.294 0 2.1.525.807.507.807 1.52 0 .656-.525 1.18-.525.507-1.182.507-.15 0-.375-.037.056-.244.056-.432 0-.675-.356-1.144-.356-.468-1.181-.468-.825 0-1.538.675-.506 1.312-.506 3.282 0 2.681 2.025 2.681 1.088 0 1.613-.694.544-.712.544-1.594.637 0 1.106.32.469.318.469.88 0 1.22-1.257 1.988-1.237.75-2.663.75z" style="-inkscape-font-specification:'Salsa, Normal';font-variant-ligatures:normal;font-variant-caps:normal;font-variant-numeric:normal;font-variant-east-asian:normal"/>
    <path d="M127.008 62.152q-.507 2.156-.507 4.332 0 2.156.488 4.275-.675.225-1.388.225-.713 0-.994-.412-.281-.432-.281-1.22 0-.805.244-2.193-1.332 2.85-2.57 3.6-.562.338-1.162.338-1.425 0-2.213-1.05-.788-1.07-.788-2.644 0-2.4 1.332-4.201 1.331-1.82 3.45-1.82 2.138 0 4.389.77zm-2.457 1.125q-.994-.3-1.688-.3-1.406 0-2.1.619-.638 1.575-.638 3.206 0 .863.263 1.745.281.88.844.88.656 0 1.687-1.93 1.032-1.932 1.632-4.22zM127.612 57.145q.6-.225 1.238-.225t1.05.431q.432.413.432 1.144 0 .713-.207 2.888-.187 2.157-.187 3.394 0 3.057.431 5.982-.6.225-1.275.225-1.444 0-1.444-1.406 0-.675.206-2.644.207-1.988.207-3.188 0-3.995-.45-6.601zM135.872 57.614l3.957.056q3.075 0 4.5-.225.207.394.207.9t-.45.919q-.45.394-1.088.394l-2.156-.244q0 .131-.094 1.163-.263 2.531-.263 5.082 0 2.55.394 5.1-.619.225-1.294.225t-1.163-.375q-.487-.393-.487-1.162 0-.788.187-2.757.188-1.97.188-3.826 0-1.875-.188-3.488-2.269.113-3.544.638-.225-.431-.225-.956 0-.544.431-.994.432-.45 1.088-.45z" style="-inkscape-font-specification:'Salsa, Normal';font-variant-ligatures:normal;font-variant-caps:normal;font-variant-numeric:normal;font-variant-east-asian:normal"/>
    <path d="M153.013 63.408l-.187 4.126q0 1.65.544 3.338-.582.225-1.182.225-1.631 0-1.631-1.725 0-1.276.225-3 .225-1.726.225-2.12 0-.975-.882-.975-.937 0-2.081 1.763-1.144 1.744-1.313 2.925.038.544.375 2.794-.581.225-1.275.225-1.444 0-1.444-1.406 0-.675.206-2.644.207-1.988.207-3.188 0-3.995-.45-6.601.6-.225 1.237-.225.638 0 1.05.431.432.413.432 1.144 0 .731-.206 3.02-.188 2.287-.188 3.562.656-1.387 1.913-2.531 1.275-1.163 2.531-1.163 1.894 0 1.894 2.025zM155.739 66.727q0 1.35.43 2.138.432.77 1.445.77 1.012 0 1.575-.676.581-.694.581-1.669.638 0 1.107.319t.469.881q0 1.163-1.238 1.95-1.238.77-2.607.77-2.138 0-3.094-1.145-.956-1.162-.956-3.431 0-2.27 1.275-3.807 1.294-1.557 3.432-1.557 1.462 0 2.344.676.9.656.9 2.062 0 1.388-1.275 2.1-1.257.694-3.076.694-.637 0-1.312-.075zm.018-1.481q.563.113 1.182.113 1.35 0 2.269-.507.112-.45.112-.712 0-.657-.469-.994-.468-.338-1.293-.338-.807 0-1.463.525-.338.975-.338 1.913zM164.677 70.76q-.581.224-1.237.224-.657 0-1.07-.3-.393-.318-.393-.862 0-.563.169-2.026.168-1.462.168-2.831 0-1.388-.43-3.245.6-.225 1.18-.225.582 0 .994.394.432.394.432 1.05 0 .338-.113 1.013-.112.656-.131.994.731-1.669 1.725-2.607 1.013-.956 2.007-.956.694 0 1.106.488.413.487.413 1.237 0 .732-.375 1.2-.375.45-.938.45-.544 0-.881-.112.056-.225.056-.413 0-.769-.544-.769-.825 0-1.556 1.67-.713 1.65-.957 3.094.094 1.406.375 2.531z" style="-inkscape-font-specification:'Salsa, Normal';font-variant-ligatures:normal;font-variant-caps:normal;font-variant-numeric:normal;font-variant-east-asian:normal"/>
    <path d="M177.811 62.152q-.506 2.156-.506 4.332 0 2.156.487 4.275-.675.225-1.387.225-.713 0-.994-.412-.282-.432-.282-1.22 0-.805.244-2.193-1.331 2.85-2.569 3.6-.562.338-1.163.338-1.425 0-2.212-1.05-.788-1.07-.788-2.644 0-2.4 1.331-4.201 1.332-1.82 3.45-1.82 2.139 0 4.39.77zm-2.457 1.125q-.993-.3-1.687-.3-1.407 0-2.1.619-.638 1.575-.638 3.206 0 .863.262 1.745.282.88.844.88.657 0 1.688-1.93 1.031-1.932 1.631-4.22zM180.629 69.147q.769.28 1.781.28 1.013 0 1.782-.393.919-1.575.919-3.77 0-2.212-.77-2.212-.956 0-2.156 1.931-1.181 1.932-1.556 4.164zm0-3.845q1.988-3.92 4.407-3.92 1.275 0 1.819 1.051.562 1.031.562 2.625 0 2.288-1.35 4.164-1.35 1.875-3.394 1.875-1.163 0-2.12-.375.038 2.569.32 4.707-.6.225-1.238.225t-1.05-.432q-.413-.412-.413-1.275 0-.862.225-2.944.225-2.081.225-3.263 0-3.9-.412-6.02.6-.225 1.256-.225.675 0 1.032.394.375.375.375 1.2 0 .807-.244 2.213zM187.897 67.871l.188-2.7q0-1.819-.525-3.45.525-.226 1.294-.226 1.5 0 1.5 1.67 0 .75-.206 2.119-.207 1.368-.207 1.894 0 .506.02.75.018.225.093.543.113.638.731.638.638 0 1.35-.994.732-1.012 1.163-2.231.45-1.22.45-1.932-.093-1.481-.318-2.232.6-.225 1.218-.225.638 0 1.05.394.432.394.432 1.05 0 10.24-3.75 12.283-.844.45-1.913.45-1.07 0-1.876-.562-.787-.563-.787-1.575 0-.675.506-1.144.506-.45 1.2-.45.15 0 .375.037-.056.244-.056.432 0 1.65 1.144 1.65.694 0 1.256-.75.563-.75.9-1.838.657-2.213.657-4.013-.563 1.519-1.538 2.456-.956.92-2.081.92-2.27 0-2.27-2.964z" style="-inkscape-font-specification:'Salsa, Normal';font-variant-ligatures:normal;font-variant-caps:normal;font-variant-numeric:normal;font-variant-east-asian:normal"/>
  </g>
</svg>
