<?xml version="1.0" encoding="utf-8"?>
<!-- Generator: Adobe Illustrator 21.0.0, SVG Export Plug-In . SVG Version: 6.00 Build 0)  -->
<svg version="1.1" id="Layer_1" xmlns="http://www.w3.org/2000/svg" xmlns:xlink="http://www.w3.org/1999/xlink" x="0px" y="0px"
	 viewBox="0 0 135 100" style="enable-background:new 0 0 135 100;" xml:space="preserve">
<style type="text/css">
	.st0{fill:#14b8ca;}
</style>
<g>
	<g>
		<g>
			<g>
				<path class="st0" d="M117.7,45.3c-4.4-2.2-12.6-2.2-12.9-2.2c-1,0-1.9,0.8-1.9,1.9s0.8,1.9,1.9,1.9c2.1,0,8.3,0.3,11.3,1.8
					c0.3,0.1,0.6,0.2,0.8,0.2c0.7,0,1.4-0.4,1.7-1C119,46.9,118.6,45.8,117.7,45.3z"/>
			</g>
		</g>
		<g>
			<g>
				<path class="st0" d="M127.1,72.1l-7.8-2.2c-0.3-0.1-0.6-0.4-0.6-0.8v-2.6c0.6-0.4,1.2-0.9,1.8-1.5c2.7-2.7,4.2-6.2,4.2-10v-3.6
					l0.8-1.5c0.8-1.7,1.3-3.5,1.3-5.4v-9.7c0-1-0.8-1.9-1.9-1.9h-18.1c-6.6,0-12,5.4-12,12v0.1c0,1.5,0.4,3.1,1.1,4.4l1,1.9v3.1
					c0,4.9,2.4,9.3,6,11.9l0,2.7c0,0.4,0,0.6-1.6,1l-3.8,1.1l-11-4c0-0.5-0.1-1-0.5-1.4l-3.5-3.7V56c0.4-0.3,0.7-0.6,1.1-1
					c4.4-4.2,7-10,7-16.1V34c1.3-2.9,2-6,2-9.2V4.7c0-1-0.8-1.9-1.9-1.9H62.5c-9.9,0-18,8.1-18,18v4c0,3.2,0.7,6.3,2,9.2v4.3
					c0,7,3.1,13.4,8.1,17.6v6.3L51,65.8c-0.4,0.4-0.6,0.9-0.5,1.4l-11.6,4.2c-0.8,0.3-1.6,0.7-2.3,1.2l-1.8-0.9
					c5.4-2.4,7.1-5.7,7.2-5.8c0.3-0.5,0.3-1.2,0-1.7c-1.4-2.7-1.5-7.7-1.7-11.7c0-1.3-0.1-2.6-0.2-3.7c-0.6-9-7.5-15.9-16-15.9
					s-15.3,6.8-16,15.9C8.1,50,8.1,51.2,8,52.6c-0.1,4-0.3,9-1.7,11.7c-0.3,0.5-0.3,1.2,0,1.7c0.1,0.2,1.8,3.5,7.2,5.8l-5.1,2.5
					c-2.7,1.4-4.4,4.1-4.4,7.1v13.9c0,1,0.8,1.9,1.9,1.9s1.9-0.8,1.9-1.9V81.4c0-1.6,0.9-3,2.3-3.7l6.3-3.1l2.2,2.1
					c1.5,1.5,3.5,2.2,5.5,2.2c2,0,3.9-0.7,5.5-2.2l2.2-2.1l2.1,1c-1,1.5-1.5,3.4-1.5,5.3v14.5c0,1,0.8,1.9,1.9,1.9s1.9-0.8,1.9-1.9
					V80.9c0-2.6,1.6-4.9,4.1-5.8l12.2-4.4l5.1,7.6c0.7,1,1.7,1.6,2.9,1.7c0.1,0,0.3,0,0.4,0c1,0,2-0.4,2.8-1.1l3.1-3.1v19.6
					c0,1,0.8,1.9,1.9,1.9c1,0,1.9-0.8,1.9-1.9V75.7l3.1,3.1c0.7,0.7,1.7,1.1,2.8,1.1c0.1,0,0.3,0,0.4,0c1.2-0.1,2.2-0.7,2.9-1.7
					l5.1-7.6L96.8,75c2.4,0.9,4.1,3.2,4.1,5.8v14.5c0,1,0.8,1.9,1.9,1.9c1,0,1.9-0.8,1.9-1.9V80.9c0-2.6-1-5.1-2.8-6.9l0.5-0.1
					c0.5-0.1,1.1-0.3,1.8-0.6l4.8,4.8v17.4c0,1,0.8,1.9,1.9,1.9s1.9-0.8,1.9-1.9V78l4.8-4.8c0.3,0.1,0.5,0.2,0.8,0.3l7.8,2.2
					c1.8,0.5,3,2.2,3,4v15.6c0,1,0.8,1.9,1.9,1.9c1,0,1.9-0.8,1.9-1.9V79.8C132.9,76.2,130.5,73.1,127.1,72.1z M16.2,68.8
					c-3.5-1.3-5.3-3-6.1-3.9c0.5-1.3,0.8-2.9,1.1-4.5c1,2.5,2.8,4.6,5,6.1V68.8z M27,73.9c-1.6,1.5-4.1,1.5-5.7,0l-1.8-1.7
					c0.3-0.6,0.5-1.2,0.5-1.8v-2c1.3,0.4,2.7,0.6,4.2,0.6c1.4,0,2.8-0.2,4.2-0.6l0,2c0,0.7,0.2,1.3,0.5,1.8L27,73.9z M24.2,65.3
					C18.5,65.3,14,60.7,14,55c0-1-0.8-1.9-1.9-1.9c-0.1,0-0.2,0-0.3,0c0-0.2,0-0.3,0-0.5c0-1.3,0.1-2.5,0.2-3.6
					c0.2-3.4,1.6-6.5,3.8-8.8c2.2-2.3,5.2-3.6,8.4-3.6s6.2,1.3,8.4,3.6c2.2,2.3,3.6,5.4,3.8,8.8c0.1,1,0.1,2.3,0.2,3.6
					c0,0.1,0,0.2,0,0.3c-2.1-3.2-5.2-5.5-9.3-6.8c-3.8-1.2-7-1.1-7.2-1.1c-0.5,0-1,0.2-1.3,0.6l-3.4,3.5c-0.7,0.7-0.7,1.9,0,2.7
					s1.9,0.7,2.7,0l2.8-2.9c2.4,0.1,10.3,1,13.3,7.7C33.5,61.6,29.2,65.3,24.2,65.3z M32.1,68.8l0-2.2c2.2-1.5,3.9-3.6,5-6.1
					c0.2,1.6,0.6,3.2,1.1,4.5C37.4,65.8,35.6,67.5,32.1,68.8z M50.3,38.2v-4.7c0-0.3-0.1-0.6-0.2-0.8c-1.2-2.5-1.8-5.2-1.8-7.9v-4
					c0-7.9,6.4-14.2,14.2-14.2h26.3v18.3c0,2.7-0.6,5.4-1.8,7.9c-0.1,0.3-0.2,0.5-0.2,0.8v5.4c0,5.1-2.1,9.8-5.8,13.3
					c-0.5,0.4-0.9,0.8-1.4,1.2c0,0,0,0,0,0c-3.5,2.7-7.8,3.9-12.2,3.6C57.7,56.5,50.3,48.2,50.3,38.2z M60.9,76.2c0,0,0,0-0.1,0
					c-0.1,0-0.1,0-0.1-0.1l-5.9-8.8l1.9-2l8.9,6.1L60.9,76.2z M68.5,68.9l-10.2-7v-3.5c2.6,1.4,5.6,2.3,8.7,2.5c0.5,0,1,0,1.5,0
					c3.6,0,7.1-0.9,10.2-2.5v3.4L68.5,68.9z M76.4,76.1C76.4,76.2,76.3,76.2,76.4,76.1c-0.2,0.1-0.2,0-0.2,0l-4.7-4.7l8.9-6.1l1.9,2
					L76.4,76.1z M110.8,74.6l-4.3-4.3c0.1-0.3,0.1-0.7,0.1-1.1l0-0.8c1.2,0.4,2.4,0.6,3.7,0.7c0.1,0,0.3,0,0.4,0
					c1.4,0,2.8-0.2,4.2-0.6v0.8c0,0.4,0,0.7,0.1,1.1L110.8,74.6z M117.9,62.4c-2,1.9-4.6,3-7.4,2.9c-5.5-0.2-9.9-5-9.9-10.7V51
					c0-0.3-0.1-0.6-0.2-0.8l-1.2-2.3c-0.4-0.9-0.7-1.8-0.7-2.8V45c0-4.5,3.7-8.2,8.2-8.2H123v7.8c0,1.3-0.3,2.5-0.9,3.7l-1,1.9
					c-0.1,0.3-0.2,0.6-0.2,0.8v4C121,57.8,119.9,60.4,117.9,62.4z"/>
			</g>
		</g>
		<g>
			<g>
				<path class="st0" d="M122.9,81.4c-1,0-1.9,0.8-1.9,1.9v12.1c0,1,0.8,1.9,1.9,1.9s1.9-0.8,1.9-1.9V83.3
					C124.8,82.2,123.9,81.4,122.9,81.4z"/>
			</g>
		</g>
		<g>
			<g>
				<path class="st0" d="M14.1,83.9c-1,0-1.9,0.8-1.9,1.9v9.6c0,1,0.8,1.9,1.9,1.9c1,0,1.9-0.8,1.9-1.9v-9.6
					C16,84.7,15.1,83.9,14.1,83.9z"/>
			</g>
		</g>
		<g>
			<g>
				<path class="st0" d="M84,25.5c-7.1-7.1-22-5.8-28.1-4.9c-1.9,0.3-3.3,1.9-3.3,3.9v4.3c0,1,0.8,1.9,1.9,1.9s1.9-0.8,1.9-1.9v-4.3
					c0-0.1,0-0.1,0.1-0.1c2.4-0.4,7.3-0.9,12.2-0.6c5.9,0.4,10.1,1.9,12.7,4.4c0.7,0.7,1.9,0.7,2.7,0C84.7,27.4,84.7,26.2,84,25.5z"
					/>
			</g>
		</g>
		<g>
			<g>
				<path class="st0" d="M46.3,85.4c-1,0-1.9,0.8-1.9,1.9v8.1c0,1,0.8,1.9,1.9,1.9c1,0,1.9-0.8,1.9-1.9v-8.1
					C48.2,86.3,47.4,85.4,46.3,85.4z"/>
			</g>
		</g>
		<g>
			<g>
				<path class="st0" d="M90.7,85.4c-1,0-1.9,0.8-1.9,1.9v8.1c0,1,0.8,1.9,1.9,1.9c1,0,1.9-0.8,1.9-1.9v-8.1
					C92.6,86.3,91.7,85.4,90.7,85.4z"/>
			</g>
		</g>
	</g>
</g>
</svg>
