<?xml version="1.0" encoding="UTF-8" standalone="no"?>
<svg
   xmlns:dc="http://purl.org/dc/elements/1.1/"
   xmlns:cc="http://creativecommons.org/ns#"
   xmlns:rdf="http://www.w3.org/1999/02/22-rdf-syntax-ns#"
   xmlns:svg="http://www.w3.org/2000/svg"
   xmlns="http://www.w3.org/2000/svg"
   xmlns:sodipodi="http://sodipodi.sourceforge.net/DTD/sodipodi-0.dtd"
   xmlns:inkscape="http://www.inkscape.org/namespaces/inkscape"
   inkscape:version="1.0 (4035a4f, 2020-05-01)"
   height="10200"
   width="8422"
   sodipodi:docname="insurance.svg"
   id="svg20"
   version="1.1"
   viewBox="0 0 8422 10200"
   text-rendering="geometricPrecision"
   shape-rendering="geometricPrecision"
   image-rendering="optimizeQuality"
   clip-rule="evenodd"
   fill-rule="evenodd">
  <metadata
     id="metadata24">
    <rdf:RDF>
      <cc:Work
         rdf:about="">
        <dc:format>image/svg+xml</dc:format>
        <dc:type
           rdf:resource="http://purl.org/dc/dcmitype/StillImage" />
        <dc:title></dc:title>
      </cc:Work>
    </rdf:RDF>
  </metadata>
  <sodipodi:namedview
     inkscape:current-layer="svg20"
     inkscape:window-maximized="0"
     inkscape:window-y="23"
     inkscape:window-x="0"
     inkscape:cy="6322.5"
     inkscape:cx="4211"
     inkscape:zoom="0.021228855"
     showgrid="false"
     id="namedview22"
     inkscape:window-height="480"
     inkscape:window-width="870"
     inkscape:pageshadow="2"
     inkscape:pageopacity="0"
     guidetolerance="10"
     gridtolerance="10"
     objecttolerance="10"
     borderopacity="1"
     bordercolor="#666666"
     pagecolor="#ffffff" />
  <defs
     id="defs12">
    <style
       id="style10"
       type="text/css">
  .fil0 {fill:#14b8ca}
  .fil1 {fill:#14b8ca}
  </style>
  </defs>
  <path
     id="path14"
     class="fil0"
     d="M 2565,3013 H 3755 V 1824 h 913 v 1189 h 1189 v 913 H 4668 V 5116 H 3755 V 3926 H 2565 Z" />
  <path
     id="path16"
     class="fil0"
     d="M 4211,6933 C 1349,5606 1297,3700 1297,881 2382,799 3279,579 4211,0 c 917,575 1845,805 2914,881 0,2819 -51,4725 -2914,6052 z M 3442,5428 V 4239 H 2253 V 2701 H 3442 V 1512 H 4980 V 2701 H 6169 V 4239 H 4980 v 1189 z m 769,1316 C 6837,5603 6953,3558 6954,1039 6061,968 4964,700 4211,201 3347,718 2467,956 1469,1039 c 0,2517 123,4567 2742,5705 z M 2419,2868 V 4072 H 3609 V 5261 H 4813 V 4072 H 6003 V 2868 H 4813 V 1678 H 3609 v 1190 z" />
  <path
     id="path18"
     class="fil1"
     d="m 7178,5511 c 14,-193 90,-912 218,-1059 40,-46 45,-36 63,-89 50,-146 104,-226 255,-268 32,-97 104,-177 206,-205 405,-112 521,267 500,593 -49,730 -145,1489 -224,2218 -53,489 -106,553 -477,890 -458,423 -1055,876 -1395,1346 -286,393 -236,584 -320,1049 -11,57 -16,131 -95,130 H 4414 c -46,0 -83,-38 -83,-85 -2,0 30,-1334 33,-1455 11,-722 325,-950 838,-1384 575,-487 1121,-966 1665,-1487 70,-68 191,-164 311,-194 z m 166,10 c 384,147 187,612 17,852 -191,271 -516,465 -673,721 -99,140 -233,33 -142,-86 174,-285 498,-474 679,-730 99,-141 314,-526 45,-607 -84,-25 -242,110 -288,154 -573,549 -1150,1056 -1759,1566 -511,429 -679,581 -695,1269 -11,430 -20,859 -29,1290 h 1342 c 87,-495 45,-694 348,-1111 331,-456 963,-958 1412,-1366 373,-337 379,-354 437,-858 80,-691 169,-1451 216,-2143 24,-370 -241,-612 -381,-332 -34,73 -45,98 -119,117 -90,23 -109,76 -137,159 -34,99 -46,88 -96,145 -75,87 -163,777 -177,960 z m -6100,-10 c -14,-193 -90,-912 -218,-1059 -40,-46 -45,-36 -63,-89 C 914,4217 860,4137 708,4095 676,3998 604,3918 503,3890 97,3778 -19,4157 3,4483 c 49,730 145,1489 223,2218 53,489 106,553 477,890 458,423 1055,876 1396,1346 285,393 235,584 319,1049 11,57 16,131 95,130 h 1495 c 46,0 84,-38 83,-85 2,0 -29,-1334 -33,-1455 -11,-722 -325,-950 -838,-1384 -575,-487 -1121,-966 -1665,-1487 -70,-68 -191,-164 -311,-194 z m -166,10 c -384,147 -187,612 -17,852 191,271 516,465 673,721 100,140 233,33 142,-86 -174,-285 -497,-474 -679,-730 -99,-141 -314,-526 -45,-607 84,-25 242,110 288,154 574,549 1150,1056 1759,1566 511,429 679,581 695,1269 12,430 21,859 29,1290 H 2581 C 2494,9455 2536,9256 2233,8839 1902,8383 1271,7881 821,7473 448,7136 442,7119 384,6615 304,5924 215,5164 169,4472 c -25,-370 240,-612 380,-332 34,73 46,98 119,117 90,23 109,76 137,159 34,99 46,88 96,145 76,87 163,777 177,960 z" />
</svg>
