<svg>

<path d="M85.843,44.275c-0.436-0.437-0.899-0.825-1.356-1.229c-2.143-1.893-4.494-3.41-6.972-4.571  c1.839-2.031,3.419-4.346,4.665-6.923c0.266-0.548,0.546-1.084,0.78-1.655c0.125-0.304,0.209-0.613,0.323-0.917  c-0.299-0.135-0.579-0.292-0.882-0.417c-0.571-0.234-1.151-0.412-1.729-0.609c-2.643-0.897-5.331-1.385-8-1.515  c0.892-2.522,1.456-5.199,1.627-7.987c0.037-0.607,0.094-1.21,0.094-1.827c0-0.328-0.039-0.646-0.049-0.972  c-0.328-0.011-0.646-0.05-0.975-0.05c-0.617,0-1.221,0.055-1.83,0.092c-2.857,0.177-5.596,0.769-8.171,1.701  c-0.134-2.736-0.646-5.491-1.584-8.195c-0.2-0.574-0.384-1.151-0.622-1.722c-0.125-0.301-0.285-0.582-0.421-0.878  c-0.304,0.116-0.611,0.204-0.914,0.331c-0.57,0.237-1.104,0.519-1.651,0.789c-2.506,1.235-4.758,2.79-6.741,4.587  c-1.15-2.413-2.638-4.706-4.485-6.798c-0.403-0.455-0.791-0.919-1.229-1.357c-0.23-0.23-0.484-0.43-0.723-0.653  c-0.237,0.224-0.488,0.421-0.721,0.653C43.841,4.59,43.453,5.053,43.05,5.51c-1.895,2.144-3.42,4.496-4.583,6.975  c-2.027-1.837-4.335-3.421-6.908-4.667c-0.548-0.265-1.086-0.544-1.657-0.779c-0.305-0.125-0.613-0.209-0.919-0.323  c-0.133,0.297-0.289,0.577-0.414,0.88c-0.234,0.571-0.412,1.149-0.608,1.726c-0.898,2.645-1.393,5.336-1.524,8.008  c-2.52-0.893-5.193-1.461-7.979-1.634c-0.607-0.037-1.211-0.092-1.828-0.092c-0.329,0-0.646,0.039-0.973,0.05  c-0.011,0.325-0.049,0.644-0.049,0.972c0,0.617,0.055,1.22,0.092,1.827c0.176,2.852,0.758,5.589,1.687,8.162  c-2.733,0.14-5.481,0.66-8.176,1.596c-0.577,0.2-1.159,0.386-1.727,0.624c-0.305,0.127-0.581,0.284-0.877,0.42  c0.116,0.304,0.205,0.614,0.33,0.915c0.24,0.571,0.522,1.108,0.791,1.653c1.231,2.501,2.78,4.747,4.572,6.725  c-2.41,1.156-4.695,2.653-6.782,4.496c-0.458,0.404-0.926,0.797-1.361,1.232c-0.233,0.233-0.43,0.483-0.652,0.722  c0.223,0.237,0.423,0.49,0.652,0.721c0.438,0.438,0.903,0.827,1.358,1.229c2.141,1.895,4.489,3.413,6.965,4.575  c-1.833,2.03-3.41,4.343-4.655,6.914c-0.266,0.55-0.546,1.091-0.78,1.66c-0.125,0.306-0.21,0.612-0.324,0.919  c0.297,0.134,0.577,0.289,0.881,0.414c0.571,0.233,1.15,0.412,1.727,0.606c2.638,0.897,5.321,1.392,7.986,1.524  c-0.887,2.52-1.443,5.193-1.615,7.975c-0.037,0.609-0.092,1.217-0.092,1.832c0,0.33,0.038,0.646,0.049,0.973  c0.326,0.012,0.644,0.049,0.973,0.049c0.617,0,1.221-0.055,1.828-0.094c2.854-0.176,5.59-0.761,8.164-1.689  c0.137,2.734,0.654,5.485,1.595,8.188c0.2,0.576,0.379,1.154,0.617,1.723c0.127,0.303,0.283,0.582,0.419,0.881  c0.31-0.118,0.617-0.205,0.92-0.332c0.568-0.237,1.103-0.523,1.65-0.792c2.5-1.232,4.752-2.777,6.735-4.567  c1.153,2.408,2.645,4.692,4.491,6.779c0.403,0.457,0.789,0.924,1.225,1.359c0.232,0.232,0.482,0.432,0.723,0.656  c0.242-0.227,0.492-0.424,0.726-0.656c0.435-0.436,0.822-0.902,1.227-1.359c1.893-2.142,3.418-4.489,4.584-6.965  c2.029,1.835,4.338,3.413,6.909,4.655c0.549,0.266,1.086,0.547,1.657,0.781c0.304,0.125,0.612,0.211,0.921,0.325  c0.133-0.301,0.289-0.578,0.414-0.884c0.234-0.569,0.411-1.151,0.607-1.727c0.896-2.639,1.397-5.325,1.533-7.992  c2.517,0.888,5.187,1.448,7.965,1.618c0.609,0.037,1.213,0.094,1.83,0.094c0.328,0,0.646-0.037,0.975-0.049  c0.01-0.328,0.049-0.645,0.049-0.975c0-0.615-0.057-1.221-0.094-1.828c-0.176-2.851-0.756-5.588-1.681-8.162  c2.73-0.137,5.479-0.656,8.177-1.596c0.576-0.201,1.152-0.383,1.723-0.619c0.304-0.127,0.582-0.284,0.876-0.42  c-0.114-0.308-0.202-0.615-0.33-0.918c-0.237-0.57-0.52-1.105-0.789-1.651c-1.234-2.503-2.791-4.749-4.586-6.729  c2.414-1.152,4.705-2.646,6.797-4.497c0.457-0.404,0.921-0.791,1.358-1.227c0.233-0.232,0.432-0.483,0.652-0.721  C86.273,44.759,86.076,44.508,85.843,44.275z M79.567,30.533c-1.273,2.576-2.925,4.849-4.847,6.808  c-0.835-0.29-1.678-0.554-2.531-0.767c-1.053-0.262-2.115-0.466-3.184-0.61c-0.59-0.079-1.184-0.122-1.776-0.166  c0.507-0.587,0.996-1.191,1.456-1.818c0.627-0.854,1.21-1.737,1.743-2.657c0.401-0.693,0.765-1.41,1.109-2.138  C74.209,29.216,76.912,29.655,79.567,30.533z M50.176,71.937c-1.494-1.951-2.695-4.098-3.597-6.364  c0.658-1.909,1.11-3.891,1.367-5.907c1.015,1.758,2.194,3.407,3.537,4.911c0.041,2.321-0.209,4.646-0.772,6.914  c-0.069,0.277-0.152,0.551-0.229,0.825C50.381,72.188,50.274,72.065,50.176,71.937z M45.058,60.159  c-0.392-2.323-0.451-4.711-0.202-7.105c0.046-0.162,0.102-0.321,0.145-0.485c0.076,0.284,0.167,0.562,0.251,0.843  C45.475,55.684,45.415,57.949,45.058,60.159z M43.572,65.572c-0.843,2.164-1.956,4.22-3.338,6.104  c-0.213,0.29-0.439,0.57-0.662,0.853c-0.065-0.228-0.137-0.453-0.197-0.682c-0.627-2.379-0.906-4.826-0.862-7.268  c1.382-1.547,2.593-3.246,3.627-5.062C42.407,61.588,42.882,63.618,43.572,65.572z M39.006,19.664  c0.137-0.675,0.315-1.343,0.509-2.006c0.511,0.638,1.002,1.289,1.449,1.969c0.997,1.518,1.825,3.135,2.49,4.817  c-0.665,1.918-1.125,3.907-1.387,5.932c-1.024-1.77-2.217-3.429-3.573-4.943C38.455,23.502,38.623,21.566,39.006,19.664z   M44.949,29.812c0.389,2.311,0.457,4.684,0.216,7.065c-0.053,0.184-0.115,0.363-0.164,0.548c-0.077-0.288-0.17-0.567-0.255-0.852  C44.525,34.297,44.592,32.026,44.949,29.812z M46.402,24.428c0.697-1.802,1.587-3.529,2.663-5.144  c0.422-0.631,0.886-1.236,1.365-1.829c0.252,0.853,0.475,1.71,0.636,2.579c0.334,1.784,0.474,3.595,0.439,5.401  c-1.391,1.553-2.61,3.257-3.651,5.078C47.582,28.433,47.1,26.393,46.402,24.428z M60.171,44.943  c-2.315,0.388-4.693,0.453-7.079,0.208c-0.173-0.05-0.342-0.108-0.517-0.155c0.285-0.076,0.563-0.168,0.845-0.253  C55.693,44.523,57.961,44.589,60.171,44.943z M55.773,55.692c-1.913-1.361-3.643-2.998-5.158-4.858  c-0.088-0.159-0.167-0.322-0.259-0.48c0.258,0.149,0.522,0.282,0.784,0.423C52.905,52.229,54.465,53.876,55.773,55.692z   M48.016,52.843c-0.03-0.286-0.052-0.571-0.091-0.857c0.107,0.139,0.224,0.269,0.333,0.405c1.149,2.107,2.014,4.326,2.547,6.613  C49.621,57.1,48.688,55.029,48.016,52.843z M47.874,37.992c0.023-0.182,0.034-0.364,0.054-0.546 
 c0.681-2.302,1.646-4.481,2.885-6.477c-0.508,2.177-1.303,4.298-2.366,6.315C48.255,37.52,48.059,37.75,47.874,37.992z M55.7,34.223  c-1.359,1.911-2.991,3.64-4.849,5.154c-0.166,0.091-0.335,0.174-0.499,0.269c0.149-0.258,0.282-0.522,0.423-0.783  C52.23,37.095,53.883,35.537,55.7,34.223z M52.715,48.44c-0.234-0.189-0.464-0.386-0.705-0.569c0.177,0.022,0.353,0.032,0.529,0.052  c2.306,0.679,4.489,1.64,6.485,2.883C56.85,50.298,54.731,49.503,52.715,48.44z M52.862,41.983  c-0.293,0.031-0.586,0.053-0.879,0.093c0.142-0.109,0.274-0.228,0.414-0.339c2.108-1.148,4.33-2.008,6.617-2.544  C57.111,40.373,55.045,41.309,52.862,41.983z M57.259,36.775c1.277-1.663,2.378-3.446,3.274-5.328c1.653-0.73,3.378-1.3,5.153-1.683  c0.866-0.187,1.743-0.313,2.627-0.411c-0.362,0.672-0.741,1.334-1.161,1.967c-1.075,1.617-2.327,3.104-3.721,4.445  C61.351,35.882,59.282,36.224,57.259,36.775z M60.084,24.202c-0.367,1.777-0.926,3.505-1.643,5.164  c-1.828,0.886-3.561,1.968-5.178,3.216c0.525-1.973,0.854-3.987,0.967-6.014c1.253-1.304,2.633-2.485,4.13-3.513  c0.673-0.461,1.375-0.877,2.091-1.273C60.362,22.596,60.25,23.405,60.084,24.202z M39.202,58.997  c0.511-2.18,1.315-4.302,2.385-6.322c0.181-0.224,0.368-0.441,0.543-0.672c-0.022,0.174-0.032,0.347-0.052,0.521  C41.401,54.824,40.441,57.003,39.202,58.997z M34.326,55.751c1.365-1.914,3.01-3.644,4.877-5.159  c0.148-0.082,0.299-0.155,0.446-0.24c-0.148,0.255-0.279,0.517-0.419,0.775C37.781,52.888,36.137,54.442,34.326,55.751z   M29.83,45.051c2.319-0.392,4.704-0.452,7.096-0.204c0.168,0.048,0.332,0.105,0.501,0.15c-0.288,0.077-0.569,0.17-0.854,0.255  C34.302,45.473,32.037,45.408,29.83,45.051z M34.236,34.31c1.916,1.361,3.643,3.005,5.158,4.869c0.085,0.154,0.162,0.312,0.25,0.464  c-0.255-0.147-0.517-0.279-0.775-0.418C37.105,37.773,35.549,36.124,34.236,34.31z M37.32,41.58c0.225,0.182,0.443,0.37,0.674,0.545  c-0.178-0.023-0.356-0.033-0.534-0.053c-2.302-0.679-4.479-1.642-6.475-2.879C33.17,39.701,35.296,40.508,37.32,41.58z   M37.136,48.015c0.294-0.031,0.588-0.054,0.882-0.094c-0.139,0.107-0.269,0.223-0.406,0.332c-2.111,1.151-4.337,2.016-6.629,2.55  C32.884,49.62,34.952,48.688,37.136,48.015z M41.98,37.093c0.032,0.306,0.055,0.612,0.097,0.918c-0.11-0.144-0.23-0.277-0.343-0.418  c-1.149-2.111-2.008-4.335-2.543-6.626C40.368,32.862,41.305,34.919,41.98,37.093z M31.431,29.419  c-0.772-1.755-1.359-3.59-1.737-5.479c-0.149-0.746-0.248-1.502-0.329-2.262c0.781,0.426,1.545,0.876,2.275,1.376  c1.498,1.026,2.878,2.209,4.132,3.513c0.115,2.074,0.455,4.134,1.002,6.15C35.107,31.43,33.319,30.319,31.431,29.419z   M29.392,31.593c0.88,1.807,1.95,3.521,3.183,5.123c-1.981-0.534-4.005-0.87-6.041-0.984c-1.38-1.331-2.619-2.807-3.686-4.41  c-0.377-0.568-0.72-1.159-1.049-1.759c0.285,0.034,0.571,0.061,0.855,0.102C24.984,30.005,27.246,30.664,29.392,31.593z   M25.473,38.517c1.543,1.377,3.234,2.587,5.04,3.621c-2.078,0.269-4.118,0.747-6.081,1.439c-2.28-0.886-4.443-2.076-6.409-3.561  c-0.187-0.142-0.368-0.294-0.553-0.44c0.345-0.099,0.689-0.201,1.037-0.288C20.792,38.72,23.135,38.471,25.473,38.517z   M24.44,46.574c1.908,0.659,3.889,1.111,5.905,1.369c-1.758,1.017-3.409,2.199-4.916,3.543c-2.446,0.045-4.898-0.235-7.281-0.863  c-0.155-0.042-0.31-0.092-0.465-0.136c0.224-0.177,0.444-0.359,0.674-0.53C20.232,48.561,22.283,47.432,24.44,46.574z   M26.574,54.256c2.069-0.117,4.126-0.463,6.138-1.015c-1.275,1.653-2.376,3.427-3.271,5.298c-2.236,0.983-4.602,1.67-7.04,2.01  c-0.233,0.032-0.468,0.053-0.702,0.08c0.174-0.313,0.345-0.629,0.529-0.936C23.435,57.69,24.903,55.868,26.574,54.256z   M29.611,67.707c0.322-2.439,0.992-4.81,1.958-7.052c1.816-0.883,3.537-1.963,5.145-3.206c-0.527,1.962-0.859,3.965-0.973,5.98  c-1.696,1.758-3.625,3.29-5.751,4.529c-0.142,0.083-0.289,0.157-0.432,0.237C29.577,68.033,29.589,67.87,29.611,67.707z   M58.521,60.515c0.943,2.139,1.617,4.395,1.976,6.719c0.055,0.354,0.093,0.712,0.135,1.069c-0.207-0.115-0.418-0.225-0.623-0.344  c-2.123-1.238-4.049-2.769-5.742-4.523c-0.118-2.079-0.467-4.146-1.024-6.168C54.89,58.532,56.657,59.624,58.521,60.515z   M57.43,53.264c1.957,0.521,3.955,0.848,5.966,0.962c1.685,1.62,3.163,3.452,4.377,5.468c0.148,0.246,0.283,0.5,0.424,0.751  c-0.681-0.073-1.359-0.161-2.03-0.289c-1.896-0.366-3.742-0.942-5.507-1.704C59.77,56.62,58.683,54.885,57.43,53.264z   M59.492,47.848c2.073-0.273,4.107-0.755,6.066-1.449c1.689,0.651,3.314,1.469,4.841,2.454c0.742,0.481,1.454,1.013,2.147,1.57  
c-0.732,0.219-1.469,0.418-2.214,0.569c-1.894,0.381-3.819,0.548-5.741,0.513C63.032,50.111,61.32,48.889,59.492,47.848z   M65.557,43.449c-1.92-0.666-3.911-1.126-5.938-1.387c1.766-1.023,3.422-2.215,4.935-3.567c1.81-0.037,3.623,0.103,5.409,0.436  c0.8,0.15,1.589,0.352,2.374,0.578c-0.536,0.434-1.082,0.854-1.65,1.24C69.077,41.836,67.354,42.736,65.557,43.449z M69.684,26.448  c-0.957,0.052-1.909,0.139-2.852,0.284c-1.072,0.164-2.13,0.385-3.172,0.666c-0.581,0.157-1.15,0.347-1.722,0.539  c0.188-0.572,0.374-1.143,0.525-1.724c0.274-1.042,0.488-2.1,0.643-3.174c0.129-0.878,0.205-1.766,0.253-2.657  c2.539-1.031,5.273-1.679,8.136-1.879C71.299,21.293,70.673,23.961,69.684,26.448z M59.216,10.331  c0.919,2.715,1.376,5.487,1.405,8.227c-0.803,0.388-1.591,0.8-2.352,1.257c-0.93,0.559-1.824,1.165-2.682,1.819  c-0.479,0.365-0.934,0.758-1.389,1.151c-0.044-0.6-0.088-1.199-0.168-1.795c-0.142-1.067-0.345-2.128-0.61-3.18  c-0.229-0.924-0.516-1.835-0.837-2.737C54.498,13.2,56.715,11.587,59.216,10.331z M45.001,7.529  c1.833,2.108,3.282,4.433,4.342,6.886c-0.538,0.599-1.059,1.21-1.543,1.848c-0.644,0.847-1.232,1.725-1.779,2.63  c-0.399,0.667-0.768,1.35-1.114,2.043c-0.27-0.529-0.537-1.061-0.839-1.573c-0.545-0.931-1.141-1.829-1.791-2.698  c-0.528-0.709-1.099-1.387-1.691-2.048C41.65,12.089,43.118,9.693,45.001,7.529z M30.539,10.431  c2.568,1.269,4.849,2.903,6.807,4.817c-0.242,0.694-0.468,1.393-0.656,2.101c-0.274,1.028-0.486,2.063-0.648,3.109  c-0.117,0.769-0.199,1.54-0.256,2.313c-0.45-0.388-0.899-0.777-1.373-1.138c-0.857-0.654-1.75-1.259-2.681-1.817  c-0.817-0.492-1.666-0.935-2.533-1.346C29.227,15.794,29.66,13.088,30.539,10.431z M26.446,20.299  c0.043,0.804,0.107,1.605,0.215,2.399c0.144,1.053,0.35,2.091,0.604,3.119c0.185,0.741,0.404,1.472,0.646,2.195  c-1.046-0.341-2.109-0.632-3.19-0.854c-1.09-0.225-2.196-0.378-3.316-0.479c-0.338-0.03-0.679-0.045-1.019-0.063  c-1.029-2.535-1.682-5.26-1.881-8.116C21.294,18.696,23.961,19.314,26.446,20.299z M10.334,30.784  c2.719-0.92,5.487-1.36,8.228-1.388c0.316,0.654,0.647,1.3,1.009,1.926c0.533,0.92,1.117,1.803,1.743,2.656  c0.452,0.615,0.933,1.209,1.431,1.786c-1.098,0.081-2.191,0.216-3.276,0.42c-1.094,0.206-2.175,0.483-3.249,0.815  c-0.39,0.121-0.776,0.256-1.161,0.395C13.196,35.486,11.59,33.276,10.334,30.784z M14.434,40.673  c0.188,0.169,0.374,0.343,0.566,0.507c0.827,0.702,1.678,1.37,2.574,1.972c1.067,0.72,2.18,1.365,3.328,1.938  c-0.978,0.496-1.936,1.027-2.853,1.631c-0.933,0.614-1.825,1.287-2.686,2.009c-0.26,0.218-0.512,0.448-0.765,0.676  c-2.516-1.065-4.905-2.531-7.066-4.407C9.646,43.161,11.978,41.731,14.434,40.673z M10.437,59.459  c1.272-2.573,2.919-4.839,4.839-6.797c0.173,0.06,0.344,0.127,0.519,0.184c1.031,0.336,2.072,0.631,3.13,0.848  c1.261,0.262,2.534,0.437,3.813,0.531c-0.716,0.829-1.401,1.685-2.021,2.592c-0.63,0.922-1.2,1.883-1.723,2.877  c-0.19,0.361-0.368,0.73-0.543,1.1C15.783,60.76,13.086,60.335,10.437,59.459z M20.33,63.553c0.252-0.014,0.505-0.021,0.757-0.042  c1.083-0.085,2.157-0.221,3.217-0.427c1.259-0.243,2.497-0.572,3.709-0.977c-0.396,1.215-0.716,2.454-0.951,3.715  c-0.198,1.064-0.323,2.139-0.408,3.223c-0.014,0.187-0.017,0.375-0.027,0.562c-2.538,1.029-5.263,1.685-8.122,1.884  C18.702,68.697,19.34,66.04,20.33,63.553z M30.788,79.667c-0.922-2.716-1.371-5.485-1.4-8.226c0.169-0.082,0.342-0.157,0.509-0.242  c0.969-0.49,1.912-1.023,2.814-1.615c1.072-0.703,2.094-1.477,3.062-2.311c0.095,1.273,0.269,2.542,0.529,3.797  c0.221,1.061,0.513,2.102,0.846,3.137c0.079,0.24,0.169,0.478,0.254,0.717C35.491,76.794,33.282,78.411,30.788,79.667z   M45.001,82.467c-1.833-2.104-3.267-4.429-4.326-6.88c0.274-0.305,0.546-0.61,0.806-0.926c0.716-0.867,1.384-1.761,1.995-2.701  c0.594-0.917,1.129-1.868,1.615-2.844c0.578,1.136,1.228,2.236,1.952,3.291c0.612,0.891,1.282,1.741,1.99,2.564  c0.12,0.14,0.248,0.271,0.371,0.409C48.339,77.906,46.88,80.305,45.001,82.467z M59.464,79.563  c-2.564-1.268-4.838-2.907-6.795-4.819c0.112-0.321,0.227-0.641,0.327-0.965c0.334-1.074,0.612-2.154,0.82-3.256  c0.202-1.074,0.336-2.157,0.416-3.244c0.966,0.831,1.984,1.604,3.054,2.305c0.905,0.592,1.848,1.125,2.814,1.617  c0.226,0.114,0.458,0.218,0.687,0.327C60.759,74.203,60.342,76.907,59.464,79.563z M63.573,69.687  c-0.021-0.409-0.046-0.818-0.085-1.226c-0.107-1.118-0.268-2.226-0.503-3.318c-0.229-1.079-0.542-2.137-0.892-3.179  c0.729,0.236,1.465,0.451,2.211,0.632c1.03,0.249,2.069,0.444,3.124,0.582c0.718,0.093,1.441,0.148,2.167,0.188  c1.033,2.54,1.698,5.265,1.899,8.126C68.713,71.298,66.055,70.668,63.573,69.687z M79.669,59.213  c-2.71,0.916-5.475,1.366-8.21,1.396c-0.148-0.308-0.294-0.615-0.452-0.916c-0.524-0.994-1.093-1.957-1.724-2.879  c-0.623-0.912-1.312-1.771-2.032-2.604c0.765-0.058,1.527-0.138,2.286-0.254c1.048-0.16,2.083-0.373,3.111-0.646  c0.775-0.207,1.54-0.457,2.298-0.729C76.814,54.493,78.414,56.716,79.669,59.213z M75.572,49.336  c-0.714-0.641-1.45-1.253-2.219-1.817c-0.875-0.641-1.78-1.233-2.714-1.772c-0.517-0.297-1.05-0.562-1.581-0.827  c0.691-0.351,1.374-0.725,2.037-1.131c0.904-0.552,1.778-1.147,2.621-1.796c0.579-0.446,1.135-0.923,1.681-1.414  c2.521,1.066,4.909,2.54,7.072,4.42C80.357,46.832,78.029,48.276,75.572,49.336z" fill="#000" stroke="none" style=""></path>
</svg>