<?xml version="1.0" encoding="UTF-8" standalone="no"?>
<svg
   xmlns:dc="http://purl.org/dc/elements/1.1/"
   xmlns:cc="http://creativecommons.org/ns#"
   xmlns:rdf="http://www.w3.org/1999/02/22-rdf-syntax-ns#"
   xmlns:svg="http://www.w3.org/2000/svg"
   xmlns="http://www.w3.org/2000/svg"
   height="55"
   width="100"
   id="svg18"
   xml:space="preserve"
   enable-background="new 0 0 100 100"
   viewBox="0 0 100 55"
   y="0px"
   x="0px"
   version="1.1"><metadata
     id="metadata24"><rdf:RDF><cc:Work
         rdf:about=""><dc:format>image/svg+xml</dc:format><dc:type
           rdf:resource="http://purl.org/dc/dcmitype/StillImage" /><dc:title></dc:title></cc:Work></rdf:RDF></metadata><defs
     id="defs22" /><g
     transform="matrix(1.1179358,0,0,1.1179358,-6.6616398,-28.483062)"
     id="g12"><path
       id="path10"
       d="m 7.75,27.5 71,1.118 2,31.007 12,-0.5 c 1.73,0.827 0.446,4.168 -0.25,5.507 -0.939,1.804 -1.266,4.864 -3.847,4.974 -0.082,0.003 -0.309,-0.475 -0.519,-0.497 -0.272,-0.028 -0.989,0.102 -1.262,0.162 -0.913,0.202 -1.75,0.599 -2.693,0.7 -1.33,0.143 -2.131,0.177 -3.301,0.932 -0.719,0.464 -2.694,2.636 -3.512,1.353 -0.687,-1.078 1.581,-2.163 0.401,-2.903 0.156,-0.386 0.5,-0.75 0.723,-1.08 -0.761,-0.419 -2.546,0.363 -2.276,-0.897 0.229,-1.069 2.215,-0.674 2.267,-1.729 -0.908,-0.4 -1.855,0.011 -2.336,-1.028 -0.314,-0.678 0.336,-1.738 -0.236,-2.375 -2.048,-2.28 -1.894,3.259 -1.912,3.274 -0.299,-0.248 -0.446,-0.824 -0.74,-1.021 -0.456,-0.304 -0.792,-0.072 -1.258,-0.272 -1.042,-0.448 -1.163,-0.932 -1.522,-1.756 -0.302,-0.691 -1.528,-2.095 -1.602,-2.716 -0.139,-1.161 1.544,-0.926 1.489,-1.984 -1.681,0.154 -0.198,-1.208 0.229,-1.516 2.171,-1.569 0.286,-1.41 -1.097,-2.124 -0.935,-0.482 -1.271,-1.922 -0.694,-2.878 0.665,-1.102 2.33,-0.655 1.831,-2.5 -0.455,-1.686 -1.99,0.555 -2.512,-1.001 -0.562,-1.673 1.703,-1.149 2.38,-1.277 0.736,-0.139 0.644,-0.112 1.094,-0.72 0.336,-0.454 0.893,-1.435 0.031,-1.639 -0.654,-0.155 -0.848,0.885 -1.506,0.673 -0.363,-0.117 -0.582,-1.095 -0.619,-1.411 -0.144,-1.239 0.249,-2.287 1.01,-3.131 0.687,-0.763 1.338,-1.517 1.987,-2.237 0.457,-0.507 0.913,-0.567 1.378,-0.878 0.751,-0.503 0.695,-0.274 0.875,-1.123 0.157,-0.736 0.356,-3.231 -0.153,-3.731 -1.109,-1.087 -2.082,0.586 -2.069,1.6 0.021,1.673 0.022,1.614 -1.403,2.726 -0.887,0.692 -2.302,0.766 -3.131,1.55 -0.545,0.516 -0.354,1.544 -0.738,1.98 -0.571,0.65 -0.787,-0.008 -1.416,0.138 -1.692,0.393 -0.364,2.05 0.89,2.129 -0.014,0.883 -0.942,2.351 0.25,2.876 0.105,0.842 -0.448,1.358 -0.59,2.072 0.206,-0.247 0.245,-0.423 0.374,-0.69 -1.127,0.781 -1.277,1.538 -1.514,2.872 -0.13,0.729 -0.143,1.301 -0.516,1.975 -0.212,0.384 -0.722,0.226 -0.742,0.747 -0.016,0.381 0.435,0.345 0.518,0.594 0.506,1.53 -0.04,2.816 0.116,4.408 0.11,1.132 0.833,2.052 1.019,3.229 1.501,0.228 1.693,0.949 2.009,2.15 0.339,1.291 0.001,1.305 -0.162,2.47 -0.14,0.995 0.398,1.51 0.64,2.399 0.218,0.8 -0.165,2.041 0.707,2.5 -0.646,0.293 -0.762,-0.112 -1.247,-0.347 -0.206,-0.1 -0.809,-0.531 -0.966,-0.65 -0.989,-0.751 -1.512,-1.997 -2.525,-2.844 -0.384,-0.321 -0.978,-0.742 -1.497,-0.791 -0.929,-0.088 -1.197,0.811 -1.957,0.836 -0.927,0.032 -1.49,-3.059 -2.372,-1.492 -0.215,-0.53 -0.411,-1.174 -0.873,-1.621 -0.224,-0.217 -1.197,-0.497 -1.28,-0.617 -0.452,-0.649 0.373,-0.885 0.143,-1.48 -0.187,-0.482 -1.314,-0.772 -1.74,-0.978 -0.983,0.898 -3.009,2.468 -4.306,1.514 -1.024,-0.753 -0.427,-2.048 0.119,-3.149 0.413,-0.833 1.124,-1.257 1.658,-1.952 0.422,-0.55 0.496,-1.111 0.854,-1.777 0.333,-0.621 0.745,-0.535 1.152,-0.922 0.586,-0.558 0.377,-1.042 0.638,-1.653 0.568,-1.33 2.743,-2.325 2.459,-3.701 -0.178,-0.862 -1.091,-1.6 -1.947,-1.633 -0.968,-0.039 -0.726,0.419 -1.4,0.603 -1.029,0.28 -2.311,-0.243 -3.128,-0.941 -1.005,-0.86 -0.849,-1.793 -2.238,-2.152 -0.821,-0.211 -1.93,0.136 -2.477,-0.398 -0.213,-0.208 -0.611,-1.532 -0.509,-1.828 0.334,-0.974 2.228,-1.605 0.852,-2.747 -1.052,-0.873 -2.843,-0.384 -4.012,-0.653 -0.336,-0.078 -1.391,-0.639 -1.5,-0.969 -0.209,-0.637 0.338,-0.82 0.624,-1.412 -0.213,-0.22 -1.02,-0.565 -1.117,-0.772 -0.285,-0.606 0.473,-0.875 0.266,-1.48 -0.275,-0.804 -2.119,-0.064 -1.648,-1.403 0.206,-0.586 1.862,-0.415 1.014,-1.5 -0.423,-0.542 -1.933,-0.344 -2.505,-0.313 -1.33,0.071 -1.095,0.075 -1.844,-0.781 -0.444,-0.508 -0.921,-1.297 -1.649,-1.374 -0.634,-0.067 -1.644,0.583 -2.353,0.75 -1.162,0.271 -2.271,0.549 -3.274,1.259 0.58,1.006 -1.546,2.586 -2.482,2.349 0.021,-0.31 -0.217,-0.63 -0.163,-0.961 -1.235,-0.154 -1.95,0.353 -2.865,-0.395 -0.622,-0.508 -1.222,-2.165 -2.399,-1.349 -1.064,0.737 -1.333,3.156 -2.311,3.952 -1.331,1.083 -0.684,-0.535 -1.434,-0.931 -1.486,-0.785 -1.367,1.283 -1.875,1.837 -0.25,0.272 -1.051,0.428 -1.411,0.644 -0.51,0.306 -0.796,0.738 -1.216,1.097 -0.867,0.739 -3.382,3.737 -4.347,3.25 V 27.5 Z"
       stroke-miterlimit="10"
       stroke-linejoin="round"
       stroke-linecap="round"
       stroke="#14b8ca"
       fill="none" /></g></svg>
