<?xml version="1.0" encoding="UTF-8" standalone="no"?>
<svg
   xmlns:dc="http://purl.org/dc/elements/1.1/"
   xmlns:cc="http://creativecommons.org/ns#"
   xmlns:rdf="http://www.w3.org/1999/02/22-rdf-syntax-ns#"
   xmlns:svg="http://www.w3.org/2000/svg"
   xmlns="http://www.w3.org/2000/svg"
   height="100"
   width="100"
   id="svg44"
   xml:space="preserve"
   enable-background="new 0 0 100 100"
   viewBox="0 0 100 100"
   y="0px"
   x="0px"
   fill="#14b8ca"
   version="1.1"><metadata
     id="metadata50"><rdf:RDF><cc:Work
         rdf:about=""><dc:format>image/svg+xml</dc:format><dc:type
           rdf:resource="http://purl.org/dc/dcmitype/StillImage" /><dc:title></dc:title></cc:Work></rdf:RDF></metadata><defs
     id="defs48" /><g
     transform="matrix(1.3306599,0,0,1.3306599,-16.532995,-15.867665)"
     id="g38"><path
       id="path30"
       d="m 37.438,40.009 h 25.125 c 0.828,0 1.5,-0.671 1.5,-1.5 0,-0.829 -0.672,-1.5 -1.5,-1.5 H 37.438 c -0.828,0 -1.5,0.671 -1.5,1.5 0,0.829 0.671,1.5 1.5,1.5 z" /><path
       id="path32"
       d="m 37.438,30.009 h 25.125 c 0.828,0 1.5,-0.671 1.5,-1.5 0,-0.829 -0.672,-1.5 -1.5,-1.5 H 37.438 c -0.828,0 -1.5,0.671 -1.5,1.5 0,0.829 0.671,1.5 1.5,1.5 z" /><path
       id="path34"
       d="M 60.563,47.009 H 39.438 c -0.828,0 -1.5,0.671 -1.5,1.5 0,0.829 0.672,1.5 1.5,1.5 h 21.125 c 0.828,0 1.5,-0.671 1.5,-1.5 0,-0.829 -0.672,-1.5 -1.5,-1.5 z" /><path
       id="path36"
       d="M 82,37 H 76 V 17 c 0,-2.2 -1.799,-4 -4,-4 H 28 c -2.199,0 -4,1.8 -4,4 v 20 h -6 c -2.199,0 -4,1.8 -4,4 v 41 c 0,2.2 1.801,4 4,4 h 64 c 2.201,0 4,-1.8 4,-4 V 41 c 0,-2.2 -1.799,-4 -4,-4 z M 67.166,61.057 c -0.521,-0.645 -1.465,-0.744 -2.109,-0.223 -0.644,0.521 -0.744,1.466 -0.223,2.109 L 81.07,83 H 18.93 L 35.166,62.943 c 0.521,-0.644 0.422,-1.588 -0.223,-2.109 -0.643,-0.521 -1.588,-0.422 -2.109,0.223 L 17,80.616 V 41.938 l 28.955,23.69 c 1.168,0.95 2.617,1.381 4.045,1.384 1.428,-0.002 2.879,-0.434 4.045,-1.384 L 83,41.938 V 80.615 Z M 80.631,40 76,43.789 V 40 Z M 28,16 h 44 c 0.543,0 1,0.458 1,1 V 46.243 L 52.146,63.307 c -0.535,0.442 -1.33,0.707 -2.146,0.705 -0.816,0.002 -1.609,-0.263 -2.146,-0.705 L 27,46.244 V 17 c 0,-0.542 0.459,-1 1,-1 z M 24,43.789 19.369,40 H 24 Z" /></g></svg>
