<svg xmlns="http://www.w3.org/2000/svg" viewBox="0 0 220 150">
  <defs/>
  <defs>
    <path id="a" d="M33.141 118.022h148.458v61.547H33.141z"/>
  </defs>
  <g fill="#454348" stroke-width=".265" aria-label="Optimal Physical Therapy" style="line-height:1.25;-inkscape-font-specification:'Salsa, Normal';font-variant-ligatures:normal;font-variant-caps:normal;font-variant-numeric:normal;font-variant-east-asian:normal" font-family="Salsa" font-size="22.931" font-weight="400" letter-spacing="-1.587" word-spacing="0">
    <path d="M30.091 81.027q-2.704-.363-4.513.528-1.828.866-2.142 3.206-.189 1.41.574 2.622.872.742 2.437 1.322 1.568.557 3.022.752 2.682.36 4.442-.514 1.76-.875 2.077-3.238.174-1.296-.75-2.345-1.67-1.867-5.147-2.333zm7.93 5.737q-.445 3.318-2.859 4.753-2.436 1.431-5.981.956-3.568-.479-5.873-2.963-2.304-2.484-1.862-5.779.445-3.318 2.904-4.747 2.462-1.45 6.03-.972t5.827 2.956q2.259 2.478 1.814 5.796zM37.732 75.372q.61-.793.981-1.974.372-1.182.194-2.223-1.5-1.65-4.06-2.454-2.58-.812-2.863.085-.35 1.115 1.462 3.224 1.82 2.086 4.286 3.342zm-4.485-1.41q-3.842-3.756-2.955-6.578.468-1.487 1.892-1.736 1.41-.278 3.27.306 2.668.84 4.36 3.102 1.692 2.263.942 4.648-.426 1.356-1.214 2.334 3.01.898 5.607 1.354.043.783-.191 1.527-.234.743-.889 1.066-.632.33-1.638.014-1.007-.316-3.352-1.342-2.346-1.026-3.724-1.46-4.55-1.43-7.173-1.727-.042-.782.198-1.548.248-.787.838-1.058.575-.3 1.538.002.94.296 2.491 1.096zM29.393 60.843q-.027-.82.29-1.507.316-.687.945-.902.64-.237 1.493.157.854.393 1.89.996.719-1.563.933-3.18.532-.059 1.094.2.542.25.666.913.113.632-.118 1.132-.23.5-.642 1.067-.413.568-.52.745.178.108.692.47l.912.597q1.069.694 2.381 1.298 2.854 1.314 3.707-.54.317-.687.25-1.803.52-.089 1.145.199.625.287.663 1.138.026.82-.405 1.757-1.688 3.666-5.854 1.748-.604-.278-2.11-1.173-1.497-.917-2.476-1.367-.398 1.028-.384 1.767-.49.077-.97-.144-.5-.23-.649-.728-.17-.507.07-1.028.24-.52.337-.678-.157-.097-.428-.222-1.562-.72-2.912-.912zM35.921 55.541q.178-.741.536-1.382.37-.66 1.027-.897.658-.236 1.298.122.62.346 2.059 1.44 1.43 1.06 2.29 1.542 2.242 1.253 4.098 1.739-.107.755-.51 1.475-.402.72-.957.962-.576.23-1.196-.117-.64-.358-1.948-1.403-1.307-1.046-2.247-1.572-2.502-1.398-4.45-1.909zm-4.378-2.789q.071-.88.452-1.56.38-.68.92-.8.53-.15 1.21.231.68.38.944 1.132.274.731-.128 1.452-.828 1.48-2.37.62-.68-.381-1.028-1.075zM50.98 37.646l3.73 3.197q1.755 1.367 3.723 2.087-.177.675-.685 1.327-1.198 1.537-2.916.198-.778-.606-2.45-2.229-1.69-1.636-2.16-2.003-.904-.705-1.482.037-.634.814.142 3.25.79 2.418 1.73 3.151 1.5 1.023 3.235 1.707-.319.856-.685 1.326-1.198 1.538-2.917.199-.723-.564-2.268-2.088t-1.98-1.862q-.904-.705-1.538.11-.437.56-.169 1.932.268 1.372.887 2.667.614 1.264 1.183 1.765 1.626 1.122 3.085 1.823-.234.748-.727 1.381-.48.615-1.08.787-.603.14-1.127-.268-.543-.423-1.79-1.657-1.266-1.248-2.623-2.305-1.374-1.071-3.471-2.037.234-.748.741-1.399.508-.65 1.198-.753.704-.12 1.337.374.325.253 1.493 1.366-.673-1.599-.737-3.307-.083-1.721.72-2.752 1.424-1.827 3.377-.305.489.38 1.043.9-.744-1.656-.886-3.452-.127-1.814.69-2.863 1.425-1.827 3.378-.304zM60.235 27.666q1.258 2.399 2.998 4.41 1.726 1.994 3.873 3.563-.444.748-1.103 1.318-.659.57-1.25.414-.604-.174-1.235-.902-.645-.745-1.53-2.223 1.05 3.7.506 5.385-.25.762-.805 1.242-1.317 1.14-2.886.8-1.584-.358-2.844-1.814-1.921-2.22-2.13-4.95-.226-2.747 1.733-4.442 1.977-1.711 4.673-2.801zm-1.371 3.006q-1.159.518-1.8 1.073-1.3 1.126-1.447 2.253.671 1.967 1.977 3.475.69.798 1.638 1.402.966.59 1.486.14.607-.525.014-3.137-.592-2.61-1.868-5.206zM58.25 21.703q.443-.646 1.082-1.093.638-.448 1.354-.306.721.11 1.235.843.5.714 1.82 3.037 1.326 2.29 2.194 3.53 2.146 3.06 4.63 5.687-.442.647-1.118 1.12-1.446 1.014-2.433-.394-.474-.676-1.65-2.793-1.188-2.135-2.03-3.337-2.804-4-5.084-6.294zM69.216 16.237q1.958-1.877 4.45-3.042 2.493-1.165 4.63-.873 2.136.293 3.156 2.474t.18 4.395q-.847 2.194-3.007 3.204-1.58.738-2.142-.467-.175-.374-.224-.858.629-.116 1.086-.33 1.433-.67 1.792-1.8.378-1.138-.272-2.53-.66-1.413-1.77-1.73-1.11-.316-2.523.345-.727.34-1.649 1.074 1.028 2.633 1.95 4.606 2.583 5.526 4.175 7.794-.548.56-1.296.91t-1.532.134q-.763-.226-1.132-1.015-.37-.79-1.074-2.84-.715-2.07-1.268-3.254-1.69-3.614-3.53-6.197zM94.15 13.57l1.169 4.912q.555 1.94 1.762 3.741-.607.46-1.313.662-1.918.55-2.498-1.479-.43-1.499-.745-3.603-.316-2.104-.449-2.567-.328-1.146-1.364-.85-1.103.316-1.854 2.773-.758 2.435-.559 3.881.227.627 1.381 3.159-.607.46-1.423.693-1.698.486-2.17-1.167-.228-.794-.648-3.178-.427-2.406-.83-3.817-1.344-4.696-2.75-7.609.63-.466 1.379-.68.75-.215 1.38.153.645.34.891 1.2.246.86.774 3.618.55 2.753.978 4.252.305-1.852 1.397-3.62 1.108-1.796 2.585-2.218 2.226-.638 2.908 1.743zM97.674 18.417l-.188-3.304q-.28-2.207-1.167-4.105.602-.354 1.535-.472 1.82-.231 2.076 1.794.116.91.076 2.602-.04 1.692.041 2.33.078.613.138.906.058.27.198.645.234.757.985.661.773-.098 1.485-1.413.731-1.34 1.067-2.886.358-1.548.249-2.412-.342-1.783-.73-2.658.693-.365 1.444-.46.773-.099 1.334.316.584.41.685 1.207 1.575 12.42-2.66 15.477-.955.676-2.251.84-1.297.165-2.362-.394-1.042-.56-1.197-1.79-.104-.818.438-1.465.545-.624 1.387-.73.182-.023.46-.013-.03.305-.002.532.254 2.002 1.642 1.826.842-.107 1.409-1.103.567-.997.809-2.368.456-2.785.179-4.969-.45 1.93-1.488 3.217-1.019 1.261-2.383 1.434-2.753.35-3.209-3.245zM110.988 16.796q-.07.321-.071.527-.005.94.542 1.448.57.508 1.51.513.963.005 1.584-.335.645-.363.649-1.074.004-.711-.682-1.128-.663-.439-1.624-.697-.939-.257-1.9-.56-.962-.327-1.646-.996-.661-.669-.655-1.677.009-1.583 1.688-2.651 1.68-1.068 3.515-1.058 2.017.011 3.068.843.616.485.612 1.287-.004.78-.627 1.28-.599.479-1.47.474-.183 0-.458-.048.07-.298.071-.527.004-.665-.498-1.012-.503-.347-1.374-.352-.849-.004-1.561.335-.278.366-.28.94-.004.572.659.943.663.348 1.602.628.961.258 1.922.607.962.326 1.623 1.041.66.692.655 1.746-.01 1.72-1.736 2.857-1.703 1.114-3.515 1.104-1.811-.01-3-.659-1.166-.671-1.158-2.001.005-.826.603-1.327.623-.524 1.494-.519.183.001.458.048zM118.9 9.8q.75-.139 1.48-.072.754.069 1.237.574.484.504.417 1.235-.065.708-.48 2.466-.389 1.738-.479 2.72-.234 2.557.077 4.45-.733.21-1.556.135-.822-.076-1.268-.485-.444-.432-.379-1.14.067-.73.492-2.35.424-1.619.522-2.692.262-2.854-.063-4.841zm.77-5.134q.832-.292 1.608-.221.777.071 1.104.516.353.423.282 1.2-.071.776-.65 1.322-.557.547-1.38.472-1.69-.155-1.528-1.913.07-.776.563-1.376zM126.485 22.545q-2.412-.448-3.458-1.973-1.046-1.524-.598-3.936.546-2.93 2.565-4.63 2.023-1.723 4.75-1.216 1.556.29 2.408 1.101.856.79.63 2.006-.147.79-.896 1.303-.744.491-1.533.345-.18-.034-.443-.13.122-.28.164-.505.151-.812-.172-1.455-.324-.643-1.315-.828-.992-.184-2 .468-.902 1.465-1.343 3.832-.6 3.223 1.835 3.676 1.308.244 2.094-.473.813-.735 1.01-1.795.767.143 1.26.631.492.488.366 1.165-.273 1.465-1.955 2.108-1.656.625-3.37.306zM145.04 16.315q-1.42 2.306-2.262 4.83-.833 2.502-1.087 5.148-.87 0-1.697-.275-.826-.276-.993-.863-.16-.609.145-1.523.311-.935 1.13-2.45-2.646 2.791-4.372 3.183-.783.174-1.479-.058-1.653-.55-2.16-2.073-.501-1.545.108-3.372.927-2.785 3.168-4.359 2.248-1.595 4.706-.776 2.48.826 4.793 2.588zm-3.285.356q-1.037-.732-1.841-1-1.632-.544-2.676-.095-1.349 1.581-1.98 3.474-.333 1-.369 2.125-.014 1.13.638 1.348.762.254 2.705-1.588t3.523-4.264zM149.174 11.578q.782.052 1.492.373.71.322.952 1.01.273.677-.096 1.492-.36.794-1.686 3.113-1.297 2.308-1.921 3.686-1.542 3.405-2.536 6.882-.782-.052-1.534-.393-1.609-.728-.9-2.295.34-.752 1.564-2.841 1.232-2.11 1.837-3.447 2.015-4.45 2.828-7.58zM160.302 17.872l3.97 2.765q3.117 2.105 4.715 2.853-.06.54-.407 1.053-.347.513-1.085.623-.726.09-1.372-.346l-2.018-1.723q-.09.133-.89 1.114-2 2.386-3.745 4.97-1.746 2.584-3.093 5.438-.78-.196-1.465-.658-.684-.462-.921-1.176-.225-.732.302-1.511.539-.798 2.077-2.665 1.537-1.867 2.808-3.748 1.284-1.9 2.198-3.663-2.377-1.439-4.028-1.78.067-.59.426-1.123.373-.55 1.118-.712.745-.16 1.41.289zM173.755 37.608l-3.59 3.552q-1.369 1.483-2.28 3.45-.709-.28-1.248-.778-1.466-1.353-.035-2.903 1.057-1.146 2.69-2.51 1.634-1.363 1.96-1.717.809-.876.017-1.607-.842-.777-3.332-.142-2.475.618-3.606 1.54-.417.52-1.98 2.821-.71-.28-1.333-.855-1.297-1.198-.13-2.462.56-.606 2.378-2.204 1.834-1.615 2.829-2.694 3.313-3.589 5.07-6.304.726.296 1.299.824.573.53.586 1.259.045.728-.561 1.385-.607.658-2.69 2.542-2.066 1.9-3.123 3.046 1.74-.702 3.818-.688 2.11.013 3.239 1.055 1.702 1.57.022 3.39zM173.612 43.649q-1.28 1.044-1.692 2.061-.395 1.003.388 1.963.783.959 1.858.97 1.107.014 2.03-.74.493.604.554 1.295.06.69-.473 1.125-1.101.9-2.804.336-1.685-.578-2.744-1.875-1.653-2.025-1.309-3.815.362-1.805 2.511-3.56 2.15-1.754 4.592-1.736 2.475.023 4.128 2.048 1.131 1.385 1.173 2.742.075 1.36-1.258 2.448-1.314 1.073-2.975.416-1.629-.654-3.035-2.377-.493-.604-.944-1.301zm1.417-1.128q.329.62.807 1.206 1.044 1.28 2.235 1.758.513-.241.762-.444.621-.508.579-1.213-.043-.705-.681-1.487-.624-.764-1.629-.98-1.184.435-2.073 1.16zM176.305 55.504q-.612-.454-1.04-1.133-.429-.679-.388-1.301.073-.615.635-.97.582-.367 2.205-1.147 1.623-.78 3.039-1.673 1.435-.906 3.073-2.563.624.474 1.004 1.075.379.601.241 1.285-.126.703-.805 1.13-.349.221-1.12.545-.752.312-1.114.513 2.203-.333 3.822.083 1.65.424 2.298 1.451.453.718.218 1.463-.236.745-1.011 1.234-.757.477-1.486.395-.71-.094-1.077-.676-.355-.562-.46-.985.27-.088.464-.21.795-.502.44-1.065-.538-.853-2.741-.52-2.172.34-3.824 1.03-1.393 1.014-2.373 2.04zM193.232 65.326q-2.654.54-5.07 1.654-2.395 1.103-4.5 2.728-.595-.634-.96-1.426-.364-.791-.05-1.315.336-.533 1.21-.936.896-.412 2.562-.851-3.847-.02-5.313-1.012-.663-.452-.97-1.118-.729-1.583.034-2.995.785-1.422 2.534-2.228 2.666-1.227 5.347-.67 2.701.549 3.785 2.902 1.094 2.374 1.391 5.267zm-2.506-2.153q-.176-1.257-.53-2.028-.72-1.562-1.762-2.016-2.076.098-3.888.932-.958.442-1.803 1.184-.835.764-.547 1.388.336.73 3.009.887 2.673.157 5.52-.347zM186.558 72.481q-.069.999.276 2.188.345 1.19 1.069 1.958 2.163.543 4.74-.204 2.599-.753 2.337-1.656-.326-1.123-3.003-1.875-2.67-.73-5.419-.41zm4.515-1.309q5.28 1 6.103 3.842.434 1.497-.614 2.494-1.02 1.011-2.892 1.554-2.687.779-5.349-.168-2.662-.948-3.358-3.348-.395-1.366-.28-2.617-3.005.919-5.42 1.977-.469-.628-.686-1.377-.217-.749.15-1.38.343-.625 1.357-.919 1.013-.293 3.534-.738 2.521-.444 3.909-.846 4.58-1.328 6.929-2.534.469.628.692 1.399.23.793-.111 1.345-.313.569-1.282.85-.947.274-2.682.466zM190.522 81.133l3.304-.205q2.205-.29 4.099-1.188.357.6.48 1.532.24 1.819-1.783 2.086-.91.12-2.602.09-1.693-.032-2.33.052-.613.081-.906.143-.27.059-.644.2-.755.24-.656.99.102.772 1.421 1.477 1.345.725 2.891 1.052 1.55.35 2.414.237 1.78-.35 2.654-.744.37.692.468 1.442.102.773-.31 1.336-.408.586-1.203.691-12.413 1.638-15.49-2.581-.681-.951-.853-2.247-.17-1.296.382-2.363.556-1.045 1.784-1.207.818-.108 1.468.43.626.542.737 1.384.024.181.015.46-.305-.029-.532.001-2 .264-1.817 1.65.11.842 1.11 1.404 1 .562 2.372.797 2.787.442 4.97.154-1.932-.44-3.224-1.471-1.267-1.013-1.447-2.377-.363-2.75 3.228-3.225z" style="-inkscape-font-specification:'Salsa, Normal';font-variant-ligatures:normal;font-variant-caps:normal;font-variant-numeric:normal;font-variant-east-asian:normal"/>
  </g>
  <path fill="#16b7ca" d="M102.051 120.877c-13.082-.357-27.456-4.917-33.371-10.585-1.9-1.82-2.893-3.499-3.147-5.319-.395-2.824 2.17-5.439 7.423-7.565 4.777-1.934 12.133-3.401 17.687-3.528l1.884-.043-.598-.947c-5.023-7.952-8.96-16.316-11.631-24.705-2.871-9.017-4.428-18.236-4.832-28.61-.061-1.577-.057-1.893.025-1.8.054.063 1.462 4.383 2.84 8.723 4.07 12.801 6.012 18.015 8.74 23.453 1.159 2.313 1.94 3.674 3.156 5.497 4.442 6.662 9.6 10.201 16.02 10.991 3.838.473 7.402-.631 11.003-3.408.87-.671 3.23-2.992 4.053-3.985 4.967-5.995 9.465-14.997 14.015-28.05 1.558-4.469 3.004-9.098 4.927-15.775.088-.307.203-.33.157-.033-.018.119-.05.666-.072 1.216-.095 2.396-.396 6.853-.671 9.927-1.596 17.816-5.157 30.642-11.139 40.11-1.885 2.985-4.302 5.942-6.58 8.05-.44.406-.808.757-.817.778-.01.022.815.076 1.832.12 10.525.462 19.294 2.721 25.06 6.458 2.75 1.783 4.988 4.052 5.91 5.993.423.893.58 1.554.582 2.455 0 .704-.02.866-.186 1.355-.677 2.004-2.824 3.533-5.804 4.135-2.926.592-9.846.777-15.05.403-11.084-.796-22.155-4.098-30.631-9.136-1.182-.703-1.358-.84-.978-.763 16.246 3.287 31.041 4.49 36.001 2.927.931-.293 1.572-.705 1.808-1.162.29-.558-.024-1.386-.832-2.198-2.717-2.73-10.758-4.951-25.024-6.914-1.866-.257-3.738-.416-7.529-.639-12.528-.737-22.259-.358-28.281 1.102-4.513 1.093-6.859 2.687-6.863 4.66-.008 3.583 4.254 7.054 11.724 9.549 10 3.339 25.012 4.802 36.294 3.537.52-.059.985-.093 1.032-.077.216.074-1.84 1.197-3.129 1.708-3.061 1.216-6.703 1.885-11.277 2.073-1.466.06-2.18.064-3.73.022zm5.53-59.964c-.665-.087-1.92-.38-2.529-.592a12.068 12.068 0 01-7.469-7.56c-.421-1.265-.535-1.933-.576-3.379-.043-1.5.028-2.204.348-3.45 1.726-6.722 8.825-10.583 15.424-8.389a12.06 12.06 0 017.988 9.022c1.308 6.492-2.843 12.782-9.35 14.166-.689.147-1.004.174-2.203.192-.77.01-1.504.006-1.633-.01z"/>
  <g fill="#454348" stroke-width=".328" aria-label="Sports and Wellness Center" style="line-height:1.25;-inkscape-font-specification:'Salsa, Normal';font-variant-ligatures:normal;font-variant-caps:normal;font-variant-numeric:normal;font-variant-east-asian:normal" font-family="Salsa" font-size="15.875" font-weight="400" letter-spacing="-.529" word-spacing="-1.587">
    <path d="M26.475 128.36q.064-.318.064-.652 0-1.54-1.508-1.54-.683 0-1.159.286-.445.524-.445 1.254 0 .476.413.826.413.333 1.016.524.62.19 1.334.476.714.286 1.317.619.62.317 1.032.968.413.635.413 1.508 0 1.667-1.286 2.715-1.27 1.048-3.064 1.048-1.444 0-2.46-.715-1-.73-1-2.032 0-.666.396-1.11.413-.461.969-.461.571 0 .841.143-.127.476-.127.857 0 .857.476 1.365.492.492 1.35.492.857 0 1.38-.444.525-.445.525-1.175 0-.746-.588-1.222-.571-.477-1.397-.762-.825-.286-1.65-.604-.826-.317-1.414-.936-.571-.635-.571-1.588 0-1.492 1.286-2.476 1.302-.984 2.937-.984 1.206 0 2.08.492.888.476.888 1.46 0 .715-.46 1.223-.46.492-1.159.492-.19 0-.429-.048zM31.78 134.646q.651.238 1.508.238.858 0 1.509-.334.777-1.333.777-3.19 0-1.874-.65-1.874-.81 0-1.826 1.635-1 1.635-1.318 3.525zm0-3.255q1.683-3.318 3.731-3.318 1.08 0 1.54.89.476.872.476 2.222 0 1.937-1.143 3.524-1.143 1.588-2.873 1.588-.985 0-1.794-.318.032 2.175.27 3.985-.508.19-1.048.19t-.889-.365q-.35-.35-.35-1.08 0-.73.191-2.492.19-1.762.19-2.762 0-3.302-.349-5.096.508-.19 1.064-.19.572 0 .873.333.318.317.318 1.016 0 .683-.207 1.873zM41.177 136.392q-1.746 0-2.571-1.016-.826-1.032-.826-2.858 0-1.841 1.095-3.19 1.096-1.35 2.81-1.35 3.525 0 3.525 3.969 0 1.857-1.143 3.159-1.143 1.286-2.89 1.286zm-1.143-6.668q-.285.921-.285 1.842 0 .92.063 1.429.064.508.238 1.016.365 1.031 1.429 1.031 1.08 0 1.413-.571.349-.572.349-1.762 0-3.382-1.603-3.382-.921 0-1.604.397zM48.278 136.01q-.492.191-1.048.191-.555 0-.905-.254-.333-.27-.333-.73 0-.476.143-1.714.143-1.239.143-2.398 0-1.174-.365-2.746.508-.19 1-.19t.841.333q.365.333.365.889 0 .286-.095.857-.095.556-.111.842.619-1.413 1.46-2.207.858-.81 1.699-.81.587 0 .937.413.349.413.349 1.048 0 .619-.318 1.016-.317.38-.793.38-.46 0-.746-.094.047-.191.047-.35 0-.65-.46-.65-.699 0-1.318 1.412-.603 1.397-.81 2.62.08 1.19.318 2.143z" style="-inkscape-font-specification:'Salsa, Normal';font-variant-ligatures:normal;font-variant-caps:normal;font-variant-numeric:normal;font-variant-east-asian:normal"/>
    <path d="M53.29 125.835q.508-.254 1.032-.254.523 0 .841.333.333.334.333.985 0 .65-.079 1.476 1.19 0 2.27-.333.19.317.19.746 0 .412-.38.682-.366.254-.747.254-.38 0-.857-.095-.476-.095-.619-.111-.016.143-.095.571l-.111.747q-.127.873-.127 1.873 0 2.175 1.413 2.175.523 0 1.206-.365.206.301.206.777 0 .477-.523.747-.508.254-1.223.254-2.794 0-2.794-3.175 0-.46.127-1.667.143-1.207.143-1.953-.762.048-1.222.27-.19-.286-.19-.65 0-.382.27-.62.269-.254.666-.254t.524.016q.016-.127.016-.334 0-1.19-.27-2.095zM59.818 133.312q-.048.222-.048.365 0 .651.38 1 .398.35 1.049.35.666 0 1.095-.239.445-.254.445-.746t-.477-.778q-.46-.301-1.127-.476-.65-.174-1.317-.38-.667-.223-1.143-.683-.46-.46-.46-1.16 0-1.095 1.158-1.84 1.159-.747 2.429-.747 1.397 0 2.127.572.429.333.429.889 0 .54-.429.889-.413.333-1.016.333-.127 0-.317-.032.047-.206.047-.365 0-.46-.349-.698-.35-.239-.952-.239-.588 0-1.08.239-.19.254-.19.65 0 .397.46.651.46.238 1.111.429.667.175 1.334.413.666.222 1.127.714.46.476.46 1.207 0 1.19-1.19 1.984-1.175.778-2.43.778-1.253 0-2.079-.445-.81-.46-.81-1.38 0-.572.413-.922.429-.365 1.032-.365.127 0 .318.032zM74.703 128.724q-.429 1.826-.429 3.667 0 1.826.413 3.62-.571.19-1.175.19-.603 0-.841-.349-.238-.365-.238-1.032 0-.682.206-1.857-1.127 2.413-2.175 3.048-.476.286-.984.286-1.206 0-1.873-.89-.667-.904-.667-2.238 0-2.032 1.127-3.556 1.127-1.54 2.921-1.54 1.81 0 3.715.651zm-2.08.953q-.841-.254-1.428-.254-1.191 0-1.778.524-.54 1.333-.54 2.714 0 .73.222 1.477.238.746.714.746.556 0 1.43-1.635.872-1.636 1.38-3.572zM82.967 129.788l-.159 3.492q0 1.445.445 2.826-.445.19-1.016.19-1.35 0-1.35-1.508 0-.682.175-2.286.175-1.619.175-2.032 0-.793-.715-.793-.523 0-1.19.762-.651.746-1.127 1.682-.46.921-.54 1.524.063 1.239.317 2.366-.508.19-1.063.19-.54 0-.89-.254-.333-.27-.333-.73 0-.476.143-1.683.143-1.222.143-2.413 0-1.206-.365-2.762.508-.19 1.08-.19.571 0 .92.333.365.333.365.825 0 .493-.127 1.572.604-1.127 1.572-1.968.968-.858 1.937-.858 1.603 0 1.603 1.715zM89.374 124.486q.508-.19 1.048-.19t.89.364q.348.35.348.89 0 .523-.158 2.507-.16 1.969-.16 3.89 0 1.905.382 4.064-.572.19-1.19.19-1.048 0-1.048-1.476 0-.492.206-1.762-.667 1.413-1.19 2.095-.509.683-1 .969-.477.27-1.017.27-1.206 0-1.857-.89-.635-.888-.635-2.19t.46-2.445q.476-1.159 1.413-1.92.953-.779 2.016-.779 1.064 0 1.842.286-.032-2.048-.35-3.873zm.35 5.222q-.778-.285-1.683-.285t-1.556.524q-.54 1.285-.54 2.873 0 .73.207 1.397.206.667.682.667.73 0 1.651-1.635.937-1.636 1.239-3.54zM105.252 136.201q-.492.19-1.063.19-.572 0-.89-.206-.317-.206-.523-.619-.302-.603-.683-2.048-.38-1.46-.603-3.19-1.334 4.238-1.524 5.778-.699.19-1.254.19-.905 0-1.334-.65-.428-.667-.619-1.73 0-.032-.238-1.334t-.35-1.81q-.364-1.857-.761-3.111-.381-1.255-1.127-1.715.19-.476.587-.746.397-.27.889-.27 1.095 0 1.572 1.651.333 1.159.793 3.937.46 2.762.683 3.953 1.794-5.017 1.794-6.636 0-.333-.08-.46.334-.381.937-.381.62 0 .953.333.349.334.555 1.08.207.73.572 2.873.38 2.143.587 3.19.635-2 1-3.222.381-1.222.778-3.08.413-1.857.413-3 0-.206-.016-.301.206-.032.698-.032.493 0 .858.317.38.302.38.985 0 .682-.507 2.286-.492 1.603-1.286 3.905-.778 2.286-1.19 3.873zM109.416 132.598q0 1.143.365 1.81.365.65 1.222.65.858 0 1.334-.571.492-.588.492-1.413.54 0 .937.27t.397.746q0 .984-1.048 1.65-1.048.652-2.207.652-1.81 0-2.62-.969-.809-.984-.809-2.905 0-1.92 1.08-3.222 1.095-1.318 2.905-1.318 1.238 0 1.984.572.762.555.762 1.746 0 1.175-1.08 1.778-1.063.587-2.603.587-.54 0-1.111-.063zm.016-1.254q.476.095 1 .095 1.143 0 1.92-.429.096-.38.096-.603 0-.556-.397-.841-.397-.286-1.095-.286-.683 0-1.239.444-.285.826-.285 1.62zM115.353 124.486q.508-.19 1.048-.19t.889.364q.365.35.365.969 0 .603-.175 2.444-.158 1.826-.158 2.874 0 2.587.365 5.064-.508.19-1.08.19-1.222 0-1.222-1.19 0-.572.174-2.239.175-1.682.175-2.698 0-3.382-.38-5.588zM119.103 124.486q.508-.19 1.047-.19.54 0 .89.364.365.35.365.969 0 .603-.175 2.444-.159 1.826-.159 2.874 0 2.587.365 5.064-.508.19-1.08.19-1.222 0-1.222-1.19 0-.572.175-2.239.175-1.682.175-2.698 0-3.382-.381-5.588zM130.075 129.788l-.158 3.492q0 1.445.444 2.826-.444.19-1.016.19-1.35 0-1.35-1.508 0-.682.175-2.286.175-1.619.175-2.032 0-.793-.714-.793-.524 0-1.19.762-.652.746-1.128 1.682-.46.921-.54 1.524.064 1.239.318 2.366-.508.19-1.064.19-.54 0-.889-.254-.333-.27-.333-.73 0-.476.143-1.683.142-1.222.142-2.413 0-1.206-.365-2.762.508-.19 1.08-.19.571 0 .92.333.366.333.366.825 0 .493-.127 1.572.603-1.127 1.571-1.968.969-.858 1.937-.858 1.603 0 1.603 1.715zM132.88 132.598q0 1.143.364 1.81.365.65 1.223.65.857 0 1.333-.571.492-.588.492-1.413.54 0 .937.27t.397.746q0 .984-1.048 1.65-1.048.652-2.207.652-1.81 0-2.62-.969-.809-.984-.809-2.905 0-1.92 1.08-3.222 1.095-1.318 2.905-1.318 1.238 0 1.984.572.762.555.762 1.746 0 1.175-1.08 1.778-1.063.587-2.603.587-.54 0-1.11-.063zm.015-1.254q.476.095 1 .095 1.143 0 1.921-.429.095-.38.095-.603 0-.556-.397-.841-.397-.286-1.095-.286-.683 0-1.238.444-.286.826-.286 1.62zM140.054 133.312q-.047.222-.047.365 0 .651.38 1 .398.35 1.049.35.666 0 1.095-.239.444-.254.444-.746t-.476-.778q-.46-.301-1.127-.476-.65-.174-1.318-.38-.666-.223-1.143-.683-.46-.46-.46-1.16 0-1.095 1.159-1.84 1.159-.747 2.429-.747 1.397 0 2.127.572.429.333.429.889 0 .54-.429.889-.413.333-1.016.333-.127 0-.317-.032.047-.206.047-.365 0-.46-.349-.698-.35-.239-.953-.239-.587 0-1.079.239-.19.254-.19.65 0 .397.46.651.46.238 1.111.429.667.175 1.334.413.666.222 1.127.714.46.476.46 1.207 0 1.19-1.19 1.984-1.175.778-2.43.778-1.254 0-2.079-.445-.81-.46-.81-1.38 0-.572.413-.922.429-.365 1.032-.365.127 0 .317.032zM146.75 133.312q-.048.222-.048.365 0 .651.381 1 .397.35 1.048.35.667 0 1.095-.239.445-.254.445-.746t-.477-.778q-.46-.301-1.127-.476-.65-.174-1.317-.38-.667-.223-1.143-.683-.46-.46-.46-1.16 0-1.095 1.158-1.84 1.16-.747 2.43-.747 1.396 0 2.126.572.429.333.429.889 0 .54-.429.889-.412.333-1.016.333-.127 0-.317-.032.047-.206.047-.365 0-.46-.349-.698-.35-.239-.952-.239-.588 0-1.08.239-.19.254-.19.65 0 .397.46.651.46.238 1.111.429.667.175 1.334.413.667.222 1.127.714.46.476.46 1.207 0 1.19-1.19 1.984-1.175.778-2.43.778-1.253 0-2.079-.445-.81-.46-.81-1.38 0-.572.413-.922.429-.365 1.032-.365.127 0 .318.032zM159.333 124.74q1.381 0 2.413.81 1.032.809 1.032 2.095 0 .682-.381 1.127-.381.444-.937.444-.555 0-.889-.143.048-.254.048-.54-.016-1-.492-1.619-.476-.635-1.397-.635-.905 0-1.683.588-.46.667-.714 1.746-.254 1.08-.254 2.127 0 1.747.667 2.937.682 1.175 2.11 1.175 1.319 0 1.779-1 .429-.873.429-2.318.81 0 1.349.302.54.285.54.952 0 1.556-1.366 2.588-1.365 1.016-3.08 1.016-2.238 0-3.397-1.477-1.158-1.492-1.158-4.032t1.444-4.334q1.46-1.81 3.937-1.81zM164.985 132.598q0 1.143.365 1.81.365.65 1.222.65t1.334-.571q.492-.588.492-1.413.54 0 .936.27.397.27.397.746 0 .984-1.048 1.65-1.047.652-2.206.652-1.81 0-2.62-.969-.81-.984-.81-2.905 0-1.92 1.08-3.222 1.096-1.318 2.905-1.318 1.239 0 1.985.572.762.555.762 1.746 0 1.175-1.08 1.778-1.063.587-2.603.587-.54 0-1.111-.063zm.015-1.254q.477.095 1 .095 1.144 0 1.921-.429.096-.38.096-.603 0-.556-.397-.841-.397-.286-1.096-.286-.682 0-1.238.444-.286.826-.286 1.62zM178.145 129.788l-.159 3.492q0 1.445.445 2.826-.445.19-1.016.19-1.35 0-1.35-1.508 0-.682.175-2.286.175-1.619.175-2.032 0-.793-.715-.793-.524 0-1.19.762-.651.746-1.128 1.682-.46.921-.54 1.524.064 1.239.318 2.366-.508.19-1.063.19-.54 0-.89-.254-.333-.27-.333-.73 0-.476.143-1.683.143-1.222.143-2.413 0-1.206-.365-2.762.508-.19 1.08-.19.57 0 .92.333.365.333.365.825 0 .493-.127 1.572.603-1.127 1.572-1.968.968-.858 1.937-.858 1.603 0 1.603 1.715zM180.139 125.835q.508-.254 1.032-.254t.841.333q.333.334.333.985 0 .65-.079 1.476 1.19 0 2.27-.333.19.317.19.746 0 .412-.38.682-.365.254-.746.254t-.858-.095q-.476-.095-.619-.111-.016.143-.095.571l-.111.747q-.127.873-.127 1.873 0 2.175 1.413 2.175.524 0 1.206-.365.207.301.207.777 0 .477-.524.747-.508.254-1.223.254-2.794 0-2.794-3.175 0-.46.127-1.667.143-1.207.143-1.953-.762.048-1.222.27-.19-.286-.19-.65 0-.382.27-.62.27-.254.666-.254.397 0 .524.016.016-.127.016-.334 0-1.19-.27-2.095zM186.682 132.598q0 1.143.366 1.81.365.65 1.222.65t1.333-.571q.493-.588.493-1.413.54 0 .936.27.397.27.397.746 0 .984-1.048 1.65-1.047.652-2.206.652-1.81 0-2.62-.969-.81-.984-.81-2.905 0-1.92 1.08-3.222 1.096-1.318 2.905-1.318 1.239 0 1.985.572.762.555.762 1.746 0 1.175-1.08 1.778-1.063.587-2.603.587-.54 0-1.112-.063zm.016-1.254q.477.095 1 .095 1.143 0 1.921-.429.096-.38.096-.603 0-.556-.397-.841-.397-.286-1.096-.286-.682 0-1.238.444-.286.826-.286 1.62zM194.779 136.01q-.492.191-1.048.191t-.905-.254q-.333-.27-.333-.73 0-.476.143-1.714.142-1.239.142-2.398 0-1.174-.365-2.746.508-.19 1-.19.493 0 .842.333.365.333.365.889 0 .286-.095.857-.096.556-.111.842.619-1.413 1.46-2.207.857-.81 1.699-.81.587 0 .936.413.35.413.35 1.048 0 .619-.318 1.016-.317.38-.794.38-.46 0-.746-.094.048-.191.048-.35 0-.65-.46-.65-.7 0-1.318 1.412-.603 1.397-.81 2.62.08 1.19.318 2.143z" style="-inkscape-font-specification:'Salsa, Normal';font-variant-ligatures:normal;font-variant-caps:normal;font-variant-numeric:normal;font-variant-east-asian:normal"/>
  </g>
  <circle cx="-115.212" cy="-90.146" r="75.455" fill="none" transform="rotate(-176.8)"/>
</svg>
