<?xml version="1.0" encoding="UTF-8" standalone="no"?>
<svg
   xmlns:dc="http://purl.org/dc/elements/1.1/"
   xmlns:cc="http://creativecommons.org/ns#"
   xmlns:rdf="http://www.w3.org/1999/02/22-rdf-syntax-ns#"
   xmlns:svg="http://www.w3.org/2000/svg"
   xmlns="http://www.w3.org/2000/svg"
   height="64"
   width="64"
   id="svg60"
   xml:space="preserve"
   viewBox="0 0 64 64"
   y="0px"
   x="0px"
   fill="#14b8ca"
   version="1.1"><metadata
     id="metadata66"><rdf:RDF><cc:Work
         rdf:about=""><dc:format>image/svg+xml</dc:format><dc:type
           rdf:resource="http://purl.org/dc/dcmitype/StillImage" /><dc:title></dc:title></cc:Work></rdf:RDF></metadata><defs
     id="defs64" /><circle
     id="circle48"
     r="2"
     cy="26"
     cx="25" /><circle
     id="circle50"
     r="2"
     cy="26"
     cx="39" /><path
     id="path52"
     d="M 53.01758,52.71875 43.38184,50.69043 C 42.00195,50.39941 41,49.16504 41,47.75488 V 45.72711 C 46.39185,42.81433 50.22266,37.37183 50.89252,31 H 52 c 2.75684,0 5,-2.24316 5,-5 0,-2.75684 -2.24316,-5 -5,-5 H 51 C 51,11.62598 43.37402,4 34,4 H 18 C 17.16602,4 16.43555,3.49219 16.1377,2.70508 15.97266,2.27051 15.52735,2.00781 15.07032,2.06836 13.23634,2.3125 11.54005,3.30078 10.41798,4.7793 9.28517,6.27246 8.80665,8.13086 9.0713,10.01172 9.43989,12.6308 11.33436,14.75055 13.81636,15.59808 13.28497,17.37219 13,19.18286 13,21 h -1 c -2.75684,0 -5,2.24316 -5,5 0,2.75684 2.24316,5 5,5 h 1.10748 C 13.77734,37.37183 17.60815,42.81433 23,45.72711 v 2.02777 c 0,1.41016 -1.00195,2.64453 -2.38184,2.93555 l -9.63574,2.02832 C 6.81836,53.59473 3.39648,56.64746 2.05176,60.68359 2.01758,60.78613 2,60.89258 2,61 v 1 H 4 V 61.16602 C 5.15527,57.875 7.97461,55.39551 11.39453,54.67579 l 9.63574,-2.02832 c 0.14923,-0.03143 0.28772,-0.08698 0.43134,-0.13129 L 31,57.60065 V 62 h 2 v -4.39935 l 9.53839,-5.08447 c 0.14362,0.04431 0.2821,0.09985 0.43134,0.13129 l 9.63574,2.02832 C 56.02539,55.39551 58.84473,57.875 60,61.16602 V 62 h 2 v -1 c 0,-0.10742 -0.01758,-0.21387 -0.05176,-0.31641 -1.34472,-4.03613 -4.7666,-7.08886 -8.93066,-7.96484 z M 52,23 c 1.6543,0 3,1.3457 3,3 0,1.6543 -1.3457,3 -3,3 H 51 V 23 Z M 11.05176,9.73242 C 10.86133,8.38379 11.20215,7.05371 12.01172,5.98828 12.68457,5.10058 13.60938,4.47656 14.66113,4.1875 15.39062,5.29688 16.64551,6 18,6 h 16 c 8.23712,0 14.94507,6.67358 15,14.89886 -8.5e-4,-1.8e-4 -0.0018,-1.2e-4 -0.0026,-2.4e-4 C 48.97919,20.8949 48.96265,20.8869 48.94452,20.883 48.65711,20.82087 48.37921,20.73346 48.11243,20.62409 48.0163,20.58466 47.92804,20.53162 47.83503,20.48652 47.65333,20.39845 47.4737,20.30708 47.30506,20.19843 47.20582,20.13453 47.11378,20.06116 47.01948,19.99054 46.87098,19.87927 46.72627,19.76367 46.59114,19.63696 46.50227,19.55359 46.41841,19.46551 46.33583,19.37591 46.21217,19.24182 46.09627,19.10107 45.98769,18.9541 45.91536,18.8562 45.84456,18.75738 45.77944,18.65423 45.67946,18.49584 45.59261,18.32922 45.51058,18.15954 45.45943,18.05371 45.40487,17.94988 45.36117,17.84008 45.28482,17.64843 45.22854,17.44775 45.17611,17.24535 45.15048,17.14641 45.11569,17.05126 45.09609,16.95006 45.03644,16.64191 45,16.32532 45,16 v -1 c 0,-0.55273 -0.44727,-1 -1,-1 H 16.21094 c -0.31445,0 -0.63477,-0.0293 -0.95117,-0.08594 -0.0038,-6.7e-4 -0.0074,6.1e-4 -0.01117,0 -2.1659,-0.38745 -3.89734,-2.05603 -4.19684,-4.18164 z M 43,16 c 0,0.23132 0.0127,0.45972 0.03473,0.68536 0.0073,0.07397 0.021,0.14581 0.03052,0.21906 0.01953,0.15076 0.03967,0.30109 0.06873,0.44867 0.01672,0.08496 0.03918,0.16754 0.05896,0.2514 0.03119,0.13232 0.06287,0.26422 0.10144,0.39349 0.02612,0.08746 0.05658,0.17273 0.086,0.25867 0.04187,0.12238 0.0849,0.24396 0.13324,0.36328 0.03455,0.08521 0.07202,0.16864 0.10986,0.2522 0.05237,0.11578 0.10687,0.23004 0.16522,0.34235 0.04218,0.08105 0.08575,0.16089 0.13098,0.24005 0.06311,0.11072 0.12933,0.21906 0.1983,0.32593 0.04828,0.07489 0.0968,0.14923 0.14789,0.22211 0.07428,0.10608 0.15234,0.20868 0.23218,0.3103 0.05353,0.06818 0.10626,0.13666 0.16229,0.20276 0.08636,0.10199 0.17743,0.19946 0.26941,0.29639 0.05615,0.05914 0.11047,0.11963 0.16864,0.17676 0.10339,0.10156 0.21204,0.19714 0.32147,0.29224 0.05304,0.04608 0.1037,0.09473 0.15808,0.13922 0.14355,0.11737 0.29285,0.22754 0.44556,0.33337 0.02435,0.01691 0.04681,0.03601 0.07141,0.05261 0.1803,0.12164 0.36664,0.23486 0.55829,0.3396 0.04498,0.0246 0.09265,0.04468 0.13824,0.06836 0.14667,0.07605 0.29443,0.1499 0.4469,0.21564 0.07202,0.03107 0.14661,0.05658 0.21985,0.08527 0.12976,0.05078 0.2597,0.10101 0.39313,0.14417 0.08459,0.0274 0.17114,0.04968 0.25714,0.07385 0.12659,0.03564 0.25348,0.07007 0.38287,0.09863 0.09204,0.02032 0.18536,0.0365 0.27869,0.05316 0.07697,0.01373 0.15216,0.03265 0.22998,0.04382 V 29 c 0,0.33752 -0.03113,0.66724 -0.05066,1 H 15.05066 C 15.03113,29.66724 15,29.33752 15,29 v -7 -1 c 0,-1.68457 0.25977,-3.36719 0.77246,-5.01367 C 15.91895,15.99512 16.06543,16 16.21094,16 Z M 12,29 c -1.6543,0 -3,-1.3457 -3,-3 0,-1.6543 1.3457,-3 3,-3 h 1 v 6 z m 3.28143,3 H 48.71856 C 47.29559,39.94568 40.34882,46 32,46 23.65118,46 16.70441,39.94568 15.28143,32 Z M 32,48 c 2.47333,0 4.83081,-0.48938 7,-1.35303 v 1.10791 c 0,1.37946 0.58582,2.64789 1.52588,3.56677 L 32,55.86719 23.47412,51.32166 C 24.41418,50.40277 25,49.13434 25,47.75488 V 46.64697 C 27.16919,47.51062 29.52667,48 32,48 Z" /><path
     id="path54"
     d="m 51,62 c 0.55273,0 1,-0.44727 1,-1 v -4 c 0,-0.55273 -0.44727,-1 -1,-1 H 38 c -0.55273,0 -1,0.44727 -1,1 v 4 c 0,0.55273 0.44727,1 1,1 z M 39,58 h 11 v 2 H 39 Z" /></svg>
